<svg width="28" height="28" viewBox="0 0 28 28" fill="none" xmlns="http://www.w3.org/2000/svg">
<path d="M1.47702 18.3503C3.26377 16.6051 5.78129 15.9205 8.10808 15.5719C8.881 15.4732 9.65995 15.4018 10.4429 15.3535C10.477 14.3014 10.6397 13.2492 10.8826 12.2517C11.0552 11.5104 11.3122 10.7145 11.4005 10.0089C11.4326 9.58464 11.5772 8.76352 11.4005 8.53041C11.0572 7.66519 8.81275 7.20528 8.10808 6.56266C7.58209 6.08175 8.05187 5.49374 8.879 5.16193C9.71616 4.66632 12.4505 4.41221 13.8076 3.9376C15.2591 3.40629 17.5357 1.85015 17.8288 1.66324C18.9872 0.924023 20.6314 0 22.2636 0C22.7233 0 23.0164 0.218405 23.0164 0.888322C23.0164 0.888322 23.0465 1.56244 22.2636 2.84347C22.0407 3.20888 20.6314 4.81542 20.2982 5.46854C19.6698 6.67397 19.5032 7.56859 19.461 7.8752C19.3365 8.48841 19.1599 10.4604 19.4951 11.7708C19.6015 12.3462 19.8926 13.0581 19.4951 13.4193C19.0033 13.8141 17.1904 11.1219 15.5141 11.4558C14.2413 11.7414 12.4947 14.001 12.4947 14.9923C12.4866 15.091 12.4806 15.1876 12.4766 15.2884C16.5319 15.28 20.5953 16.0129 24.2792 17.821C27.1019 19.1861 29.5331 21.8573 26.8148 24.8415C24.8433 26.8135 20.2841 27.0088 17.6602 27.1096C13.902 27.1705 6.57228 26.7841 3.6693 24.2115C2.05119 22.647 2.85021 20.7044 4.61689 19.8413C6.31129 18.9992 8.5096 18.5162 10.7561 18.3398C10.6196 17.8147 10.5292 17.2813 10.4811 16.7395C7.54395 16.8046 4.39404 17.2519 2.2138 19.1651C-1.10073 22.3656 2.83013 26.1541 5.91178 27.3742L5.68291 28C4.20934 27.4435 2.78998 26.6266 1.65168 25.4169C-0.365948 23.319 -0.665077 20.4755 1.48104 18.3461L1.47702 18.3503ZM14.1007 11.0904C15.2912 9.99205 16.3593 9.86605 17.5297 10.8951C17.598 10.9497 18.3528 11.7162 18.415 11.7708C18.0858 10.5549 17.6762 8.78452 17.883 7.58329C18.0898 6.38206 18.2584 5.89905 18.666 5.07163C19.2301 3.9691 20.0833 3.18368 20.8763 2.31006C20.9526 2.23026 21.0309 2.14835 21.1132 2.06855C19.8766 2.58096 18.9531 3.06398 18.5275 3.32648C18.1019 3.58899 16.8511 4.31981 16.3211 4.63902C15.4037 5.15773 13.9963 5.76464 13.1371 5.86335C13.1371 5.86335 11.0412 6.08175 10.1699 6.08175C11.2359 6.62777 13.6069 7.51189 13.8056 8.78452C13.9823 9.93535 13.629 10.8321 13.2937 11.7708C13.2415 11.9136 13.1893 12.0564 13.1371 12.1992C13.4161 11.7981 13.7293 11.4201 14.0967 11.0904H14.1007ZM4.65704 22.227C4.58075 22.4433 4.73935 22.626 4.90999 22.794C6.79713 24.3459 10.7179 24.7911 13.125 25.0557C14.6207 25.1964 16.1244 25.2594 17.6241 25.2426C19.8324 25.1964 22.0849 25.062 24.1728 24.3774C24.6988 24.1842 25.1947 23.9826 25.5841 23.5983C25.9997 23.1468 26.3872 22.5735 26.2888 21.9581C25.8913 20.213 23.0747 19.0223 21.5388 18.407C18.7342 17.3149 15.7449 16.834 12.7577 16.75C12.6713 16.75 12.587 16.7458 12.5007 16.7458C12.5509 17.2666 12.6513 17.779 12.8119 18.2642C14.5585 18.2684 16.2509 18.449 17.6742 18.7871C18.9029 19.1 20.2158 19.5809 21.1976 20.5448C21.3301 20.6813 21.4585 20.8304 21.579 20.9858C21.7496 21.1811 21.8701 21.6557 21.7858 21.9371C21.4666 23.2749 19.2783 23.4828 18.2243 23.5521C15.6707 23.697 12.852 22.6449 11.5049 20.2382C9.73423 20.3369 7.98161 20.6393 6.3916 21.1559C5.7833 21.3974 4.98628 21.6809 4.65503 22.227H4.65704ZM14.0485 20.2424C14.1529 20.3369 14.2633 20.4293 14.3818 20.5154C15.6265 21.4331 17.5859 21.7817 19.2141 21.4352C18.6218 21.0803 17.9292 20.8724 17.2426 20.6834C16.2207 20.4524 15.1447 20.3075 14.0465 20.2424H14.0485Z" fill="black"/>
</svg>
