<svg width="24" height="24" viewBox="0 0 24 24" fill="none" xmlns="http://www.w3.org/2000/svg">
<path fill-rule="evenodd" clip-rule="evenodd" d="M9.89283 2.28296C7.87456 2.28296 5.93897 3.08471 4.51184 4.51184C3.08471 5.93897 2.28296 7.87456 2.28296 9.89283C2.28296 11.9111 3.08471 13.8467 4.51184 15.2738C5.93897 16.7009 7.87456 17.5027 9.89283 17.5027C11.9111 17.5027 13.8467 16.7009 15.2738 15.2738C16.7009 13.8467 17.5027 11.9111 17.5027 9.89283C17.5027 7.87456 16.7009 5.93897 15.2738 4.51184C13.8467 3.08471 11.9111 2.28296 9.89283 2.28296ZM0 9.89283C0 7.26909 1.04228 4.75281 2.89754 2.89754C4.75281 1.04228 7.26909 0 9.89283 0C12.5166 0 15.0328 1.04228 16.8881 2.89754C18.7434 4.75281 19.7857 7.26909 19.7857 9.89283C19.7857 12.5166 18.7434 15.0328 16.8881 16.8881C15.0328 18.7434 12.5166 19.7857 9.89283 19.7857C7.26909 19.7857 4.75281 18.7434 2.89754 16.8881C1.04228 15.0328 0 12.5166 0 9.89283Z" fill="#140000"/>
<path fill-rule="evenodd" clip-rule="evenodd" d="M15.9354 15.9354C16.1494 15.7216 16.4395 15.6016 16.742 15.6016C17.0445 15.6016 17.3347 15.7216 17.5487 15.9354L23.6366 22.0233C23.7487 22.1278 23.8387 22.2538 23.9011 22.3938C23.9635 22.5338 23.997 22.685 23.9997 22.8383C24.0024 22.9915 23.9742 23.1438 23.9168 23.2859C23.8594 23.428 23.7739 23.5572 23.6656 23.6656C23.5572 23.7739 23.428 23.8594 23.2859 23.9168C23.1438 23.9742 22.9915 24.0024 22.8383 23.9997C22.685 23.997 22.5338 23.9635 22.3938 23.9011C22.2538 23.8387 22.1278 23.7487 22.0233 23.6366L15.9354 17.5487C15.7216 17.3347 15.6016 17.0445 15.6016 16.742C15.6016 16.4395 15.7216 16.1494 15.9354 15.9354Z" fill="#140000"/>
</svg>
