<svg width="25" height="22" viewBox="0 0 25 22" fill="none" xmlns="http://www.w3.org/2000/svg">
<path d="M12.1992 2.22754C14.79 -0.0635775 17.6919 -0.38687 20.0557 0.699219C22.5382 1.84045 24.2607 4.47091 24.2979 7.50879H24.2998V7.70898H24.2969C24.2695 10.6822 23.0286 12.9559 21.4092 14.7881C19.8053 16.6042 17.7586 18.0579 16.1729 19.3154C15.6011 19.768 14.9824 20.2541 14.3525 20.624C13.7502 20.9773 13.0567 21.2707 12.2998 21.2949V21.2998H12.1006V21.2949C11.3438 21.2708 10.6503 20.9784 10.0479 20.624C9.41918 20.2542 8.79932 19.7681 8.22754 19.3154C6.64164 18.0589 4.59512 16.6031 2.99121 14.7881C1.37178 12.957 0.130858 10.6822 0.103516 7.70898H0.100586V7.50879H0.102539C0.13967 4.47089 1.86329 1.84045 4.34473 0.699219C6.70794 -0.386611 9.61034 -0.0630359 12.1992 2.22754ZM11.5254 4.18066C9.25395 1.80874 6.88084 1.60447 5.125 2.41113C3.31038 3.24562 1.97478 5.23336 1.97461 7.6084C1.97461 10.0436 2.96493 11.9214 4.3916 13.5381C5.82918 15.1644 7.63346 16.4509 9.30957 17.7744H9.31055L9.38867 17.8369L9.81738 18.1738C10.0956 18.3899 10.3594 18.5873 10.6152 18.7598L10.9941 18.999L11.1758 19.1016C11.5875 19.3217 11.9198 19.417 12.2002 19.417C12.5206 19.417 12.9075 19.2911 13.4062 18.999C13.9048 18.707 14.4236 18.3033 15.0117 17.8369L15.0898 17.7744C16.7661 16.4508 18.571 15.1646 20.0088 13.5381C21.3464 12.0224 22.3001 10.2775 22.4141 8.05859L22.4258 7.6084L22.4219 7.3877C22.342 5.10973 21.0335 3.21965 19.2754 2.41113C17.5196 1.60448 15.1465 1.80982 12.875 4.18066L12.8057 4.25293L12.8008 4.24805C12.7303 4.30735 12.6523 4.3572 12.5674 4.39355C12.4514 4.4431 12.3262 4.46875 12.2002 4.46875C12.0741 4.46875 11.949 4.4431 11.833 4.39355C11.7478 4.3571 11.6693 4.30757 11.5986 4.24805L11.5947 4.25293L11.5254 4.18066Z" fill="black" stroke="black" stroke-width="0.2"/>
</svg>
