<svg width="17" height="20" viewBox="0 0 17 20" fill="none" xmlns="http://www.w3.org/2000/svg">
<path d="M9.832 19.2475C12.958 18.6215 17 16.3725 17 10.5575C17 5.26646 13.127 1.74246 10.342 0.123464C9.723 -0.236536 9 0.236464 9 0.951464V2.77946C9 4.22146 8.394 6.85346 6.71 7.94846C5.85 8.50746 4.92 7.67046 4.816 6.65046L4.73 5.81246C4.63 4.83846 3.638 4.24746 2.86 4.84146C1.461 5.90646 0 7.77646 0 10.5565C0 17.6675 5.289 19.4465 7.933 19.4465C8.08767 19.4465 8.249 19.4415 8.417 19.4315C7.111 19.3205 5 18.5105 5 15.8905C5 13.8405 6.495 12.4555 7.631 11.7805C7.937 11.6005 8.294 11.8355 8.294 12.1905V12.7805C8.294 13.2305 8.469 13.9355 8.884 14.4175C9.354 14.9635 10.043 14.3915 10.098 13.6735C10.116 13.4475 10.344 13.3035 10.54 13.4175C11.181 13.7925 12 14.5925 12 15.8905C12 17.9385 10.871 18.8805 9.832 19.2475Z" fill="#DC4928"/>
</svg>
