<svg width="25" height="22" viewBox="0 0 25 22" fill="none" xmlns="http://www.w3.org/2000/svg">
<path d="M12.1992 2.22754C14.79 -0.0635776 17.6919 -0.38687 20.0557 0.699219C22.5653 1.85291 24.2996 4.52849 24.2998 7.6084C24.2998 10.6308 23.0467 12.9353 21.4092 14.7881C19.8053 16.6042 17.7586 18.0579 16.1729 19.3154C15.6011 19.768 14.9824 20.2541 14.3525 20.624C13.7239 20.9927 12.996 21.2998 12.2002 21.2998C11.4045 21.2998 10.6767 20.9939 10.0479 20.624C9.41918 20.2542 8.79932 19.7681 8.22754 19.3154C6.64164 18.0589 4.59512 16.6031 2.99121 14.7881C1.35364 12.9364 0.100586 10.6308 0.100586 7.6084C0.100755 4.52847 1.83621 1.8529 4.34473 0.699219C6.70794 -0.386611 9.61034 -0.0630358 12.1992 2.22754ZM11.5254 4.18066C9.25395 1.80874 6.88084 1.60447 5.125 2.41113C3.31038 3.24562 1.97478 5.23336 1.97461 7.6084C1.97461 10.0436 2.96493 11.9214 4.3916 13.5381C5.85181 15.19 7.6904 16.4913 9.38867 17.8369C9.82974 18.1867 10.2316 18.5011 10.6152 18.7598L10.9941 18.999L11.1758 19.1016C11.5875 19.3217 11.9198 19.417 12.2002 19.417C12.5206 19.417 12.9075 19.2911 13.4062 18.999C13.9048 18.707 14.4236 18.3033 15.0117 17.8369C16.71 16.4913 18.5486 15.19 20.0088 13.5381C21.4355 11.9214 22.4258 10.0436 22.4258 7.6084C22.4256 5.23225 21.09 3.24562 19.2754 2.41113C17.5196 1.60448 15.1465 1.80982 12.875 4.18066C12.7877 4.27165 12.6831 4.34403 12.5674 4.39355C12.4514 4.4431 12.3262 4.46875 12.2002 4.46875C12.0741 4.46875 11.949 4.4431 11.833 4.39355C11.7173 4.34403 11.6127 4.27165 11.5254 4.18066Z" fill="#FFFCEB" stroke="#FFFCEB" stroke-width="0.2"/>
<rect x="2.2002" y="3.2002" width="20" height="9" fill="#FFFCEB"/>
<rect width="1" height="7" transform="matrix(-1 0 0 1 2.2002 4.2002)" fill="#FFFCEB"/>
<rect width="1" height="7" transform="matrix(-1 0 0 1 23.2002 4.2002)" fill="#FFFCEB"/>
<rect x="3.2002" y="12.2002" width="18" height="2" fill="#FFFCEB"/>
<rect x="5.2002" y="14.2002" width="14" height="2" fill="#FFFCEB"/>
<rect x="7.2002" y="16.2002" width="10" height="1" fill="#FFFCEB"/>
<rect x="8.2002" y="17.2002" width="8" height="2" fill="#FFFCEB"/>
<rect x="11.2002" y="19.2002" width="2" height="1" fill="#FFFCEB"/>
<rect width="9" height="1" transform="matrix(1 0 0 -1 2.2002 3.2002)" fill="#FFFCEB"/>
<rect width="5" height="1" transform="matrix(1 0 0 -1 4.2002 2.2002)" fill="#FFFCEB"/>
<rect width="9" height="1" transform="matrix(1 0 0 -1 13.2002 3.2002)" fill="#FFFCEB"/>
<rect width="5" height="1" transform="matrix(1 0 0 -1 15.2002 2.2002)" fill="#FFFCEB"/>
</svg>
