<svg width="38" height="33" viewBox="0 0 38 33" fill="none" xmlns="http://www.w3.org/2000/svg">
<path d="M18.7002 3.39844C22.6894 -0.150161 27.1567 -0.650941 30.79 1.01855C34.6392 2.78802 37.3016 6.89361 37.3018 11.6221C37.3018 16.2649 35.3779 19.8047 32.8594 22.6543C31.0078 24.751 28.7728 26.5333 26.7383 28.1123L24.792 29.6279C23.91 30.3261 22.9595 31.0745 21.9922 31.6426C21.0267 32.2088 19.9141 32.6768 18.7012 32.6768C17.4883 32.6768 16.3758 32.2106 15.4102 31.6426C14.686 31.2166 13.9693 30.6889 13.2842 30.1572L12.6104 29.6279C10.162 27.6881 7.01171 25.4482 4.54297 22.6543C2.02441 19.8064 0.100586 16.2649 0.100586 11.6221C0.100738 6.89359 2.76487 2.78801 6.6123 1.01855L6.98438 0.856445C10.5473 -0.61329 14.8489 -0.0295959 18.7002 3.39844ZM29.6328 3.56055C26.9021 2.30563 23.2194 2.62976 19.7031 6.2998C19.5734 6.43507 19.4172 6.54269 19.2451 6.61621C19.0731 6.68965 18.8881 6.72754 18.7012 6.72754C18.5143 6.72754 18.3292 6.68965 18.1572 6.61621C17.9851 6.54269 17.8289 6.43507 17.6992 6.2998C14.183 2.62806 10.5003 2.30562 7.76953 3.56055C4.95177 4.85648 2.88199 7.94021 2.88184 11.6221C2.88184 15.3932 4.41664 18.2996 6.62207 20.7988C8.87749 23.3504 11.718 25.3616 14.333 27.4336C15.2391 28.1522 16.0411 28.777 16.8135 29.2295H16.8145C17.5851 29.6837 18.1931 29.8818 18.7012 29.8818C19.2091 29.8818 19.816 29.6822 20.5889 29.2295C21.3613 28.777 22.1633 28.1522 23.0693 27.4336C25.6844 25.3616 28.5249 23.3504 30.7803 20.7988C32.9857 18.2996 34.5205 15.3932 34.5205 11.6221C34.5204 7.9385 32.4506 4.85649 29.6328 3.56055Z" fill="#716942" stroke="#716942" stroke-width="0.2"/>
<rect x="3.28418" y="4.8252" width="30.835" height="13.8757" fill="#716942"/>
<rect width="1.54167" height="10.7917" transform="matrix(-1 0 0 1 3.28418 6.36719)" fill="#716942"/>
<rect width="1.54167" height="10.7917" transform="matrix(-1 0 0 1 35.6621 6.36719)" fill="#716942"/>
<rect x="4.8252" y="18.7021" width="27.7515" height="3.0835" fill="#716942"/>
<rect x="7.90918" y="21.7852" width="21.5845" height="3.0835" fill="#716942"/>
<rect x="10.9922" y="24.8682" width="15.4179" height="1.54179" fill="#716942"/>
<rect x="12.5352" y="26.4111" width="12.3333" height="3.08333" fill="#716942"/>
<rect x="17.1602" y="29.4941" width="3.08333" height="1.54167" fill="#716942"/>
<rect width="13.8761" height="1.54179" transform="matrix(1 0 0 -1 3.28418 4.8252)" fill="#716942"/>
<rect width="7.70833" height="1.54167" transform="matrix(1 0 0 -1 6.36719 3.28418)" fill="#716942"/>
<rect width="13.8761" height="1.54179" transform="matrix(1 0 0 -1 20.2432 4.8252)" fill="#716942"/>
<rect width="7.70833" height="1.54167" transform="matrix(1 0 0 -1 23.3271 3.28418)" fill="#716942"/>
</svg>
