<svg width="320" height="131" viewBox="0 0 320 131" fill="none" xmlns="http://www.w3.org/2000/svg">
<path fill-rule="evenodd" clip-rule="evenodd" d="M119.706 19.2439C119.706 19.2439 126.897 19.1473 127.872 19.1814C129.763 19.2382 132.279 18.5394 132.405 17.1249C132.591 15.04 129.615 14.7389 127.993 14.4719C124.157 13.847 121.427 14.1878 119.043 14.2219C119.01 14.2219 112.056 14.4435 107.978 15.9376C105.594 16.8124 103.533 17.3862 104.427 19.67C104.986 21.0959 109.381 21.2379 111.096 20.9255C113.513 20.488 117.322 19.4257 117.322 19.4257C117.322 19.4257 117.69 23.141 117.624 27.0552C117.531 32.8044 117.437 35.4688 117.421 38.2525C117.421 38.3547 116.303 51.9323 118.188 53.7104C118.517 54.0172 119.624 54.0342 119.975 53.699C120.468 53.2275 121.093 51.9891 121.279 50.8983C121.581 49.177 121.449 48.1942 121.279 43.0358C121.027 35.0995 119.69 19.2439 119.69 19.2439H119.706Z" fill="#FFFCEB"/>
<path fill-rule="evenodd" clip-rule="evenodd" d="M319.971 97.6774C319.955 97.5387 319.915 97.3001 319.887 97.1614C319.775 96.6177 319.359 94.7423 319.297 94.426C319.106 93.4606 319.1 93.4606 318.735 91.7239C318.651 91.3133 318.342 89.9317 318.235 89.5489C318.162 89.2881 318.207 89.1383 318.117 89.0384C318.134 88.8165 318.151 88.6001 318.168 88.3837C318.308 86.0311 319.039 80.1663 319.05 80.0887C319.904 74.296 320.202 70.0903 319.421 66.567C319.134 65.2908 318.786 63.7261 317.229 62.6996C316.853 62.45 316.133 62.3945 315.369 63.0825C314.004 64.3087 313.964 66.0121 314.02 67.4936C314.088 69.1803 314.105 72.2875 314.088 73.3805C314.043 76.1992 313.998 76.6708 313.998 78.2355C313.998 79.1787 314.082 81.953 314.167 83.0016C313.813 80.6491 313.076 77.9802 310.345 76.4988C306.676 74.5124 303.253 76.693 302.293 77.4032C297.471 80.9709 296.712 87.7789 297.69 92.0124C298.353 94.8754 300.455 97.5498 303.461 98.9369C307.097 100.618 311.138 99.8303 313.97 98.0436C314.689 97.5887 315.279 97.1503 315.768 96.7231C315.785 97.3057 315.802 97.8162 315.819 98.0658C315.819 98.1102 315.847 98.3821 315.948 98.6262C316.049 98.8704 316.038 98.8759 316.206 99.0812C316.274 99.1644 316.341 99.2477 316.414 99.3198C316.645 99.5473 316.886 99.6693 316.937 99.6915C317.684 100.074 318.376 99.8746 318.499 99.8414C318.628 99.8025 319.365 99.5972 319.775 98.8149C320.056 98.2767 320 97.7607 319.988 97.6663L319.971 97.6774ZM301.461 85.4763C302.309 80.2329 306.288 79.4395 306.901 79.3896C308.204 79.2897 310.486 79.6781 312.177 81.6866C313.206 82.9129 313.678 84.078 313.739 85.6094C314.138 95.7355 299.46 97.8661 301.461 85.4707V85.4763Z" fill="#FFFCEB"/>
<path fill-rule="evenodd" clip-rule="evenodd" d="M206.412 96.808C206.244 96.2657 205.64 94.3961 205.547 94.081C205.257 93.1152 205.251 93.1204 204.711 91.385C204.583 90.9718 204.136 89.598 203.991 89.2158C203.898 88.9731 203.857 88.6425 203.729 88.4308C204.118 84.7999 203.996 80.3685 201.453 78.0599C197.753 74.6976 191.505 78.0289 189.176 80.1775C188.607 80.7043 187.834 81.541 188.235 82.2743C188.258 82.3208 188.421 82.6204 188.769 82.6927C188.81 82.703 189.037 82.7495 189.269 82.5997C189.507 82.4448 189.699 81.9438 190.372 81.3602C191.476 80.4047 194.043 78.7881 196.981 78.8243C198.967 78.8449 199.984 79.7488 200.5 81.1846C201.093 82.8373 200.982 85.084 200.68 87.0673C200.233 86.8968 199.629 86.6747 198.985 86.4578C198.596 86.3287 197.382 86.024 196.969 85.9568C196.877 85.9413 196.04 85.7916 195.129 85.7141C194.78 85.6831 193.787 85.6624 192.782 85.7761C192.672 85.7864 192.178 85.8432 191.429 86.055C190.825 86.2254 190.175 86.5301 189.884 86.6954C187.643 87.9711 186.679 90.1351 187.05 92.4644C187.561 95.6149 190.622 98.8016 194.101 99.6848C197.022 100.429 200.268 99.5143 202.051 95.7544C202.161 96.7202 202.283 97.7325 202.353 98.125C202.359 98.1715 202.411 98.4452 202.539 98.6828C202.667 98.9204 202.655 98.9307 202.847 99.1218C202.922 99.1993 202.998 99.2768 203.085 99.3491C203.34 99.5557 203.602 99.659 203.648 99.6796C204.444 99.9947 205.129 99.7313 205.245 99.6848C205.373 99.6383 206.099 99.3542 206.441 98.5227C206.68 97.9494 206.563 97.4278 206.546 97.3348C206.517 97.1954 206.453 96.9578 206.412 96.8183V96.808ZM199.792 91.0803C199.467 92.2682 199.159 93.3528 198.572 94.2824C197.707 95.6408 196.766 95.8887 195.889 95.7699C194.118 95.5375 192.184 93.7453 191.708 92.2165C191.487 91.5141 191.656 91.2662 191.673 91.2301C191.673 91.2301 191.766 91.0338 192.074 90.8427C192.335 90.6774 192.567 90.5793 192.614 90.5638C193.044 90.383 193.334 90.3004 193.398 90.2797C193.694 90.1919 194.141 90.0318 195.041 89.8872C195.407 89.8252 195.814 89.7271 196.714 89.6238C197.26 89.5618 197.562 89.505 198.416 89.4327C198.729 89.4069 199.252 89.3294 200.262 89.2519C200.088 90.0267 199.914 90.6619 199.804 91.0803H199.792Z" fill="#FFFCEB"/>
<path fill-rule="evenodd" clip-rule="evenodd" d="M153.849 40.6298C153.475 40.491 152.296 40.1634 151.9 40.0856C151.813 40.069 150.998 39.908 150.118 39.8247C149.782 39.7913 148.815 39.7691 147.848 39.8913C147.74 39.9024 147.262 39.9635 146.54 40.1911C145.953 40.3744 145.323 40.7075 145.041 40.8852C142.869 42.2622 141.934 44.5998 142.298 47.1151C142.793 50.5132 145.758 53.9613 149.13 54.9163C151.959 55.7159 155.104 54.7331 156.831 50.6687C156.939 51.7126 157.053 52.8064 157.124 53.2284C157.135 53.2784 157.178 53.5726 157.303 53.8336C157.428 54.089 157.417 54.1001 157.602 54.3111C157.678 54.3944 157.749 54.4777 157.83 54.5554C158.08 54.7831 158.33 54.8941 158.378 54.9108C159.15 55.255 159.812 54.9663 159.926 54.9163C160.046 54.8664 160.752 54.561 161.083 53.6615C161.311 53.0452 161.202 52.4788 161.181 52.3789C161.154 52.2289 161.094 51.9735 161.05 51.8236C160.887 51.2406 160.301 49.2195 160.209 48.8808C159.926 47.8425 159.921 47.8425 159.399 45.9713C159.275 45.5271 158.84 44.0446 158.699 43.6337C158.607 43.3672 158.569 43.0173 158.444 42.7841C158.818 38.8641 158.699 34.0778 156.239 31.5848C152.655 27.9534 146.599 31.5514 144.351 33.8668C143.803 34.4332 143.053 35.3382 143.439 36.1267C143.466 36.1767 143.623 36.4987 143.955 36.5765C143.993 36.5876 144.215 36.6375 144.438 36.4765C144.666 36.3099 144.856 35.7658 145.508 35.1384C146.578 34.1056 149.065 32.3621 151.905 32.3954C153.828 32.4176 154.816 33.3949 155.316 34.944C155.891 36.7319 155.783 39.1528 155.489 41.2961C155.055 41.1073 154.474 40.8685 153.849 40.6409V40.6298ZM154.637 45.6326C154.322 46.9152 154.023 48.0868 153.453 49.0918C152.617 50.5576 151.704 50.8242 150.852 50.6964C149.136 50.441 147.262 48.5088 146.8 46.8597C146.589 46.1045 146.746 45.838 146.768 45.7936C146.768 45.7936 146.86 45.5826 147.153 45.3772C147.403 45.1995 147.631 45.094 147.675 45.0773C148.093 44.883 148.375 44.7886 148.435 44.7719C148.723 44.6775 149.157 44.5054 150.026 44.3444C150.385 44.2778 150.77 44.1723 151.644 44.0612C152.177 43.9946 152.465 43.9335 153.29 43.8558C153.589 43.828 154.105 43.7392 155.077 43.6614C154.908 44.4943 154.74 45.1884 154.631 45.6381L154.637 45.6326Z" fill="#FFFCEB"/>
<path fill-rule="evenodd" clip-rule="evenodd" d="M171.242 55.0253C172.51 54.5612 172.959 53.3086 173.189 52.5705C173.665 51.044 174.013 48.7514 174.574 45.0665C174.754 43.8922 175.36 39.5251 176.021 36.5168C176.74 33.2736 177.312 32.5579 177.491 32.3342C177.514 32.3566 177.542 32.379 177.575 32.4125C178.793 33.6483 180.167 38.0713 180.195 38.144C180.229 38.2223 180.251 38.3061 180.302 38.3732C180.453 38.5801 180.678 38.6137 180.717 38.6249C180.986 38.664 181.166 38.5354 181.199 38.5074C181.407 38.3565 181.441 38.1384 181.446 38.0992C181.463 37.9762 181.457 37.9706 181.435 37.8476C180.397 32.4237 179.32 30.6288 178.013 30.1591C176.723 29.6894 175.741 30.735 175.685 30.7909C174.17 32.2559 172.869 36.2596 171.769 40.2353C171.466 41.3256 171.197 42.3489 170.95 43.2995C170.894 43.0703 170.827 42.813 170.743 42.5111C170.709 42.3825 170.591 41.9407 170.249 40.951C169.924 40.0004 169.654 39.3462 169.649 39.3406C169.43 38.8429 169.015 37.9371 168.448 36.9474C168.106 36.3546 167.601 35.6445 167.27 35.2195C166.962 34.8225 166.715 34.5485 166.709 34.5485C166.216 34.0285 165.11 32.9269 163.629 32.323C163.579 32.3007 163.22 32.1553 162.951 32.0938C162.67 32.0267 161.627 31.7862 160.578 32.1385C160.353 32.2112 160.263 32.2895 160.241 32.3119C160.213 32.3342 160.039 32.4796 160.005 32.7256C159.966 32.994 160.151 33.3016 160.179 33.3463C160.202 33.3799 160.37 33.665 160.6 33.5868C160.701 33.5532 160.796 33.4246 160.808 33.4134C160.791 33.4358 161.369 33.4358 162.064 33.967C162.356 34.1851 163.13 34.7331 163.848 36.3323C164.011 36.6901 164.28 37.2214 164.589 38.2279C164.74 38.7143 164.976 39.3742 165.239 40.5987C165.318 40.9622 165.526 41.7115 165.772 43.1206C165.885 43.7636 165.896 43.758 166.019 44.4738C166.148 45.2175 166.159 45.2119 166.277 45.9556C166.35 46.3973 166.356 46.3973 166.429 46.839C166.636 48.0413 166.934 50.0822 166.99 50.3674C167.214 51.5976 167.461 52.6656 167.814 53.4093C168.628 55.1259 170.176 55.4055 171.242 55.0197V55.0253Z" fill="#FFFCEB"/>
<path fill-rule="evenodd" clip-rule="evenodd" d="M202.738 47.8508C204.069 50.8754 205.62 52.4967 206.669 53.387C207.299 53.9235 207.729 54.1888 208.144 54.4187C208.4 54.5602 208.686 54.7253 209.301 54.9376C209.746 55.0967 211.031 55.2559 212.065 55.1203C212.941 55.0083 215.971 54.0119 216.35 53.8174C216.867 53.5521 218.705 52.7148 218.844 52.1371C218.879 51.9897 218.767 51.6831 218.398 51.689C216.391 51.7067 215.623 51.5534 215.516 51.5416C213.893 51.4532 212.961 51.0404 212.536 50.8518C212.48 50.8282 211.927 50.6867 211.216 50.2563C210.99 50.1207 210.913 50.103 210.57 49.879C210.309 49.708 210.243 49.6844 209.941 49.4545C209.716 49.2835 208.758 48.6644 207.744 47.0903C206.48 45.1211 205.845 42.7097 205.768 42.4326C205.727 42.2793 205.39 41.1237 205.108 39.2489C206.26 38.3999 207.683 37.3032 209.157 36.0297C215.562 30.5054 217.262 26.679 217.861 24.7334C219.366 19.8576 218.101 16.1314 214.461 14.6693C210.14 12.9359 205.779 15.1115 202.983 21.7442C201.273 25.7946 200.485 30.7058 200.459 35.3222C200.454 36.5781 200.475 39.6085 201.238 43.1224C201.325 43.5115 201.816 45.7932 202.727 47.8567L202.738 47.8508ZM207.386 21.3669C209.086 18.248 210.893 17.9002 211.512 17.8176C212.628 17.6643 213.678 17.8707 214.553 18.8435C215.526 19.9224 215.746 21.8916 215.69 22.8173C215.644 23.5955 215.5 24.0436 215.434 24.3561C215.321 24.8631 214.932 25.9833 214.733 26.4196C212.772 30.6646 208.236 34.4615 204.888 37.3681C204.796 36.3953 204.739 35.3105 204.734 34.1313C204.724 29.5503 205.599 24.6391 207.381 21.3669H207.386Z" fill="#FFFCEB"/>
<path fill-rule="evenodd" clip-rule="evenodd" d="M145.696 96.5111C143.226 96.7814 142.944 96.3868 141.642 95.657C139.956 94.7056 137.876 91.3107 137.887 90.1863C137.887 90.1863 141.648 87.2995 143.424 85.2723C149.806 77.9906 150.443 73.2983 150.652 71.2549C151.148 66.422 150.59 63.2704 146.592 61.7676C142.499 60.2269 138.191 62.492 135.288 68.8006C133.517 72.655 132.604 77.277 132.44 81.5963C132.395 82.7694 132.328 85.6075 132.959 88.8672C133.027 89.2294 133.438 91.3431 134.256 93.246C135.451 96.0246 136.382 97.176 137.887 98.2843C139.392 99.3925 141.529 100.036 143.271 99.906C145.019 99.7763 147.15 98.4735 147.568 97.7707C148.081 96.922 146.823 96.3868 145.696 96.5111ZM136.601 80.3314C136.737 76.0445 137.729 71.4171 139.544 68.2979C141.281 65.3192 143.875 65.2382 144.968 65.6977C146.575 66.3734 147.528 71.0711 146.519 74.7147C145.228 79.3637 138.682 87.9374 137.357 87.786C136.821 86.8995 136.545 82.2396 136.607 80.3314H136.601Z" fill="#FFFCEB"/>
<path fill-rule="evenodd" clip-rule="evenodd" d="M220.016 61.7676C215.786 60.2269 211.335 62.492 208.335 68.8006C206.505 72.655 205.561 77.277 205.393 81.5963C205.346 82.7694 205.276 85.6075 205.929 88.8672C205.998 89.2294 206.424 91.3431 207.269 93.246C208.504 96.0246 209.465 97.176 211.021 98.2843C212.576 99.3925 214.784 100.036 216.584 99.906C218.39 99.7763 220.593 98.4735 221.024 97.7707C221.554 96.922 220.255 96.3868 219.09 96.5111C216.538 96.7814 216.247 96.3868 214.901 95.657C213.159 94.7056 211.009 91.3107 211.021 90.1863C211.021 90.1863 214.907 87.2995 216.742 85.2723C223.337 77.9906 223.995 73.2983 224.211 71.2549C224.723 66.422 224.147 63.2704 220.016 61.7676ZM219.94 74.7092C218.606 79.3583 211.842 87.932 210.473 87.7806C209.919 86.8941 209.634 82.2342 209.698 80.3259C209.838 76.0391 210.863 71.4117 212.739 68.2925C214.534 65.3138 217.214 65.2327 218.344 65.6922C220.004 66.368 220.989 71.0657 219.946 74.7092H219.94Z" fill="#FFFCEB"/>
<path fill-rule="evenodd" clip-rule="evenodd" d="M186.764 94.9984C186.596 94.8751 186.219 94.8546 185.946 94.9111C184.369 95.2194 181.261 96.2419 179.054 95.4455C169.29 91.9361 174.054 78.4381 182.199 80.8788C182.906 81.0894 183.53 81.4234 184.17 81.6135C184.846 81.8088 185.789 82.1787 186.271 81.5673C186.921 80.7452 184.489 78.1144 182.859 77.4413C181.072 76.7066 178.976 76.1928 175.8 77.1536C174.06 77.6828 172.309 79.0239 170.774 81.855C167.954 87.0497 168.965 95.0498 173.384 98.2715C177.382 101.19 182.278 99.4841 183.478 98.8366C184.788 98.1327 185.705 97.3003 186.35 96.6324C186.764 96.2059 186.879 95.949 186.942 95.6561C187.026 95.2656 186.932 95.1269 186.764 94.9984Z" fill="#FFFCEB"/>
<path fill-rule="evenodd" clip-rule="evenodd" d="M249.239 98.1716C251.242 97.5356 253.748 95.4064 253.957 95.1022C254.13 94.8534 254.055 94.6488 254.038 94.6156C253.968 94.4552 253.835 94.4109 253.818 94.3999C253.771 94.3833 253.719 94.3778 253.667 94.3778C253.505 94.3888 253.407 94.4939 253.389 94.5105C251.861 95.9816 250.397 96.3853 247.994 97.237C247.155 96.7061 242.75 96.2249 241.951 96.0037C241.818 95.3566 241.922 93.7086 241.922 93.7086C242.015 93.9574 251.473 87.5477 255.282 80.0318C257.58 75.4968 258.611 70.2429 255.647 66.084C252.081 61.0845 245.766 61.7813 242.102 65.5475C239.769 67.9422 238.866 71.2937 238.339 73.4284C236.724 80.0041 236.678 89.3451 237.488 98.1772C237.112 98.3265 236.909 98.4482 236.776 98.5311C235.711 99.2169 236.07 100.163 236.088 100.218C236.348 100.965 237.135 101.153 237.535 101.23C237.621 101.247 237.708 101.263 237.807 101.274C237.899 102.076 237.998 102.867 238.102 103.647C238.49 106.589 238.872 108.729 238.872 108.735C240.226 115.731 241.592 119.724 242.015 120.941C244.545 128.213 246.837 129.988 248.672 130.447C249.233 130.586 252.909 131.482 255.051 125.481C257.476 118.695 256.972 105.571 251.224 99.7368C251.022 99.5321 249.447 98.3376 249.245 98.1606L249.239 98.1716ZM243.213 75.9392C243.369 75.0765 243.694 73.257 244.336 71.6753C244.938 70.1931 246.067 69.2308 246.246 69.087C247.636 67.9422 249.117 67.9533 249.453 67.9643C251.485 68.0141 252.481 69.358 252.596 69.5571C254.813 73.3731 249.957 83.9695 245.76 88.1118C244.649 89.2068 242.837 90.6336 241.946 91.3028C241.899 90.9378 242.246 81.2761 243.219 75.9392H243.213ZM249.772 125.664C249.772 125.664 249.766 125.664 249.76 125.658H249.772V125.664ZM249.777 125.68C249.777 125.68 249.783 125.664 249.789 125.658C249.766 125.63 249.563 125.475 249.256 125.033C247.693 122.755 246.003 117.866 245.754 117.147C244.429 113.369 243.566 108.95 243.456 108.381C242.692 104.432 242.189 100.08 242.218 100.046C247.45 100.494 251.219 105.013 252.156 108.27C255.109 118.529 251.167 126.001 249.777 125.686V125.68Z" fill="#FFFCEB"/>
<path fill-rule="evenodd" clip-rule="evenodd" d="M161.326 75.9515C157.846 73.8913 154.867 74.8303 152.46 76.7413C147.854 80.3921 147.17 87.5005 148.096 91.8914C148.721 94.8574 150.72 97.6355 153.569 99.0716C157.017 100.811 162.027 99.8227 164.623 96.68C168.577 91.9025 167.667 83.6121 165.496 80.2043C165.496 80.2043 163.917 77.4814 161.326 75.946V75.9515ZM151.684 85.1145C152.562 79.6852 156.263 78.8512 156.844 78.8015C158.078 78.6965 160.244 79.0997 161.849 81.1875C162.824 82.4578 163.287 83.6674 163.33 85.2581C163.583 94.2498 149.723 97.2489 151.684 85.1145Z" fill="#FFFCEB"/>
<path fill-rule="evenodd" clip-rule="evenodd" d="M268.793 77.7045C265.424 75.796 262.537 76.6669 260.206 78.4357C255.741 81.8227 255.079 88.4085 255.979 92.4783C256.589 95.2309 258.522 97.8007 261.282 99.134C264.624 100.747 269.471 99.8276 271.987 96.919C275.817 92.4891 274.938 84.8011 272.835 81.6453C272.835 81.6453 271.309 79.1238 268.793 77.6992V77.7045ZM259.46 86.1989C260.307 81.1668 263.899 80.3926 264.46 80.3496C265.657 80.2528 267.755 80.6238 269.307 82.5592C270.255 83.7366 270.7 84.8602 270.742 86.3333C270.991 94.6664 257.563 97.4513 259.46 86.1989Z" fill="#FFFCEB"/>
<path fill-rule="evenodd" clip-rule="evenodd" d="M289.684 79.4594C285.989 77.7015 282.823 78.5037 280.266 80.1328C275.369 83.2524 274.643 89.3183 275.63 93.0668C276.298 95.6021 278.419 97.969 281.446 99.1971C285.112 100.683 290.427 99.8358 293.187 97.1569C297.388 93.0767 296.423 85.9957 294.117 83.089C294.117 83.089 292.443 80.7666 289.684 79.4544V79.4594ZM279.441 87.2832C280.371 82.6483 284.31 81.9353 284.926 81.8956C286.239 81.8065 288.539 82.1482 290.242 83.9308C291.282 85.0153 291.77 86.0502 291.816 87.4069C292.089 95.0822 277.361 97.6472 279.441 87.2832Z" fill="#FFFCEB"/>
<path fill-rule="evenodd" clip-rule="evenodd" d="M95.6845 67.1063C81.1666 60.2986 65.1489 57.5323 49.1704 57.5656C49.1872 57.1886 49.2095 56.8172 49.2431 56.4569C49.2431 52.726 56.1215 44.2109 61.1417 43.1354C67.7514 41.877 74.8984 52.0164 76.8348 50.5307C78.4019 49.178 77.2546 46.4949 76.8348 44.3217C75.5084 39.3879 76.2024 31.9593 76.7005 29.6532C76.8684 28.5001 77.5232 25.124 79.9969 20.5948C81.3066 18.1389 86.8641 12.0852 87.7428 10.7104C90.8265 5.88185 90.709 3.34838 90.709 3.34838C90.709 0.826009 89.5505 0 87.7428 0C81.3178 0 74.8312 3.48143 70.2699 6.25882C69.1114 6.96287 60.1399 12.8281 54.4201 14.8294C49.0696 16.62 38.3016 17.5735 34.9996 19.4417C31.7423 20.689 29.8898 22.901 31.9661 24.7137C34.7365 27.1419 43.5849 28.8715 44.9393 32.1256C45.6333 33.0015 45.068 36.0894 44.9393 37.6915C44.5923 40.3525 43.5793 43.3405 42.9021 46.1401C41.945 49.8987 41.307 53.8624 41.1671 57.8206C38.0889 57.998 35.0163 58.2752 31.9661 58.6466C22.7932 59.9605 12.8702 62.5438 5.83521 69.1131L5.8464 69.0965L5.83521 69.0854C-2.62139 77.1126 -1.44049 87.8119 6.50681 95.7172C10.9898 100.274 16.5864 103.345 22.3958 105.441L23.2969 103.085C11.1521 98.4891 -4.34517 84.2252 8.7287 72.1732C17.3196 64.9664 29.7331 63.2811 41.307 63.0372C41.4917 65.0717 41.8499 67.0841 42.3872 69.0632C33.5388 69.7284 24.8807 71.5468 18.1983 74.7233C11.236 77.9719 8.08508 85.284 14.4597 91.1769C25.9049 100.862 54.7839 102.325 69.5983 102.098C79.941 101.715 97.9119 100.989 105.675 93.5552C116.387 82.3181 106.805 72.2564 95.6845 67.1118V67.1063ZM40.0813 22.8954C43.5177 22.8954 51.7784 22.0694 51.7784 22.0694C55.1644 21.6924 60.7107 19.414 64.3262 17.4571C66.4138 16.2541 71.3389 13.5044 73.0179 12.5121C74.6913 11.5198 78.3347 9.70699 83.2038 7.78333C82.8792 8.08269 82.5714 8.38205 82.2692 8.69249C79.1406 11.9799 75.7714 14.9458 73.5551 19.0924C71.9433 22.2135 71.2829 24.0263 70.4714 28.5555C69.6543 33.0736 71.2717 39.7482 72.5645 44.3273C72.3127 44.1222 69.3408 41.2284 69.0722 41.0288C64.4549 37.1593 60.2518 37.6305 55.5618 41.7716C54.1178 43.0079 52.881 44.4326 51.7784 45.946V45.9294C51.9743 45.3917 52.187 44.8539 52.3941 44.3217C53.7149 40.7904 55.1085 37.4143 54.4089 33.0792C53.6309 28.2894 44.2845 24.9577 40.0813 22.901V22.8954ZM100.822 88.8652C99.2887 90.3066 97.3355 91.0772 95.2591 91.7978C87.0264 94.3756 78.1444 94.8801 69.4472 95.0631C63.5371 95.1296 57.6046 94.8912 51.7169 94.359C42.2249 93.3612 26.778 91.6814 19.3456 85.8384C18.674 85.2064 18.0416 84.519 18.3494 83.7041C19.6534 81.6474 22.7932 80.5774 25.1886 79.6738L25.1998 79.6627C31.468 77.7224 38.3688 76.5804 45.3534 76.209C50.6591 85.2674 61.7685 89.2311 71.8314 88.6878C75.9897 88.4217 84.6142 87.6401 85.8679 82.6009C86.1981 81.5476 85.728 79.757 85.0508 79.0252C84.5806 78.4376 84.0713 77.8777 83.5508 77.3676C79.6779 73.7365 74.5066 71.9293 69.6654 70.7485C64.0576 69.479 57.3807 68.7971 50.5024 68.7805C49.8755 66.9566 49.4782 65.0274 49.2767 63.0649C49.6125 63.0705 49.9483 63.076 50.2841 63.0816C62.0595 63.4031 73.835 65.1992 84.8884 69.3182C90.9497 71.6355 102.048 76.1203 103.609 82.6896C104.001 85.0068 102.473 87.1578 100.833 88.8652H100.822ZM55.3603 76.2256C59.6865 76.4696 63.9288 77.0239 67.9529 77.8832H67.9585C70.6673 78.5928 73.3928 79.3689 75.7267 80.7105C69.3073 82.0188 61.5894 80.7105 56.6755 77.2512C56.211 76.9241 55.7745 76.5804 55.3603 76.2256Z" fill="#FFFCEB"/>
<path fill-rule="evenodd" clip-rule="evenodd" d="M183.249 51.3256C186.267 55.2214 191.586 53.8304 194.205 53.0683C194.325 53.031 200.231 50.8833 201.447 50.2598C201.764 50.0999 201.748 49.6469 201.502 49.3378C201.348 49.1459 201.14 49.1246 201.102 49.1193C201.025 49.1086 200.855 49.1459 200.57 49.2312C191.499 52.0291 187.248 50.7554 186.097 48.5011C185.719 47.755 185.615 46.7797 185.747 45.7032C186.059 45.8151 186.41 45.9377 186.782 46.0549C186.908 46.0975 187.746 46.364 188.382 46.5132C191.241 47.1954 193.942 46.7104 195.81 45.8631C196.089 45.7351 198.127 44.7759 198.691 42.2071C198.779 41.7968 198.916 41.0293 198.938 39.8569C198.965 38.2634 198.669 36.8138 198.434 36.0198C198.078 34.8367 197.809 34.2185 197.388 33.5097C197.004 32.8701 196.325 32.188 195.892 31.7563C195.793 31.6551 195.306 31.1701 194.517 30.7331C192.353 29.55 189.379 29.6672 186.432 32.7476C186.202 32.9874 185.029 34.2131 183.956 36.1797C181.249 41.1253 180.346 47.5738 183.249 51.3203V51.3256ZM191.816 34.5968C193.383 34.453 195.021 35.3216 195.711 37.8104C196.489 40.5977 195.317 42.2871 194.314 42.7827C191.362 44.2429 186.968 42.9799 186.218 42.852C186.936 37.5546 189.614 34.7994 191.811 34.5968H191.816ZM182.679 43.8699C182.679 43.8699 182.674 43.8699 182.668 43.8699C182.668 43.8699 182.674 43.8699 182.679 43.8699Z" fill="#FFFCEB"/>
<path fill-rule="evenodd" clip-rule="evenodd" d="M128.872 45.292C128.872 45.292 133.865 51.9277 138.907 54.9279C139.498 55.2815 139.906 55.171 140.1 55.0881C140.492 54.9224 140.471 53.9334 140.073 53.1985C139.493 52.1211 138.256 50.8945 137.101 49.7287C135.354 47.9662 131.173 43.5461 131.291 43.6455C132.065 44.3141 138.289 44.2478 139.342 40.6453C141.062 34.7997 134.07 26.8766 127.561 31.352C124.777 33.2637 124.266 36.8496 124.492 41.2697C124.562 42.5902 124.416 51.8835 125.669 53.7345C126.969 55.6572 129.039 55.1655 129.791 53.6405C130.232 52.7565 130.205 51.9609 129.506 49.0878C129.377 48.5463 129.001 45.828 128.872 45.281V45.292ZM128.184 40.4796C127.711 35.2473 129.775 34.3246 131.382 34.1367C133.43 33.8991 137.246 36.5512 136.268 39.474C135.435 41.9659 128.297 41.0929 128.243 41.1095C128.211 40.8222 128.195 40.6233 128.179 40.4796H128.184Z" fill="#FFFCEB"/>
<path fill-rule="evenodd" clip-rule="evenodd" d="M119.706 19.2439C119.706 19.2439 126.897 19.1473 127.872 19.1814C129.763 19.2382 132.279 18.5394 132.405 17.1249C132.591 15.04 129.615 14.7389 127.993 14.4719C124.157 13.847 121.427 14.1878 119.043 14.2219C119.01 14.2219 112.056 14.4435 107.978 15.9376C105.594 16.8124 103.533 17.3862 104.427 19.67C104.986 21.0959 109.381 21.2379 111.096 20.9255C113.513 20.488 117.322 19.4257 117.322 19.4257C117.322 19.4257 117.69 23.141 117.624 27.0552C117.531 32.8044 117.437 35.4688 117.421 38.2525C117.421 38.3547 116.303 51.9323 118.188 53.7104C118.517 54.0172 119.624 54.0342 119.975 53.699C120.468 53.2275 121.093 51.9891 121.279 50.8983C121.581 49.177 121.449 48.1942 121.279 43.0358C121.027 35.0995 119.69 19.2439 119.69 19.2439H119.706Z" fill="#FFFCEB"/>
<path fill-rule="evenodd" clip-rule="evenodd" d="M319.971 97.6774C319.955 97.5387 319.915 97.3001 319.887 97.1614C319.775 96.6177 319.359 94.7423 319.297 94.426C319.106 93.4606 319.1 93.4606 318.735 91.7239C318.651 91.3133 318.342 89.9317 318.235 89.5489C318.162 89.2881 318.207 89.1383 318.117 89.0384C318.134 88.8165 318.151 88.6001 318.168 88.3837C318.308 86.0311 319.039 80.1663 319.05 80.0887C319.904 74.296 320.202 70.0903 319.421 66.567C319.134 65.2908 318.786 63.7261 317.229 62.6996C316.853 62.45 316.133 62.3945 315.369 63.0825C314.004 64.3087 313.964 66.0121 314.02 67.4936C314.088 69.1803 314.105 72.2875 314.088 73.3805C314.043 76.1992 313.998 76.6708 313.998 78.2355C313.998 79.1787 314.082 81.953 314.167 83.0016C313.813 80.6491 313.076 77.9802 310.345 76.4988C306.676 74.5124 303.253 76.693 302.293 77.4032C297.471 80.9709 296.712 87.7789 297.69 92.0124C298.353 94.8754 300.455 97.5498 303.461 98.9369C307.097 100.618 311.138 99.8303 313.97 98.0436C314.689 97.5887 315.279 97.1503 315.768 96.7231C315.785 97.3057 315.802 97.8162 315.819 98.0658C315.819 98.1102 315.847 98.3821 315.948 98.6262C316.049 98.8704 316.038 98.8759 316.206 99.0812C316.274 99.1644 316.341 99.2477 316.414 99.3198C316.645 99.5473 316.886 99.6693 316.937 99.6915C317.684 100.074 318.376 99.8746 318.499 99.8414C318.628 99.8025 319.365 99.5972 319.775 98.8149C320.056 98.2767 320 97.7607 319.988 97.6663L319.971 97.6774ZM301.461 85.4763C302.309 80.2329 306.288 79.4395 306.901 79.3896C308.204 79.2897 310.486 79.6781 312.177 81.6866C313.206 82.9129 313.678 84.078 313.739 85.6094C314.138 95.7355 299.46 97.8661 301.461 85.4707V85.4763Z" fill="#FFFCEB"/>
<path fill-rule="evenodd" clip-rule="evenodd" d="M206.412 96.808C206.244 96.2657 205.64 94.3961 205.547 94.081C205.257 93.1152 205.251 93.1204 204.711 91.385C204.583 90.9718 204.136 89.598 203.991 89.2158C203.898 88.9731 203.857 88.6425 203.729 88.4308C204.118 84.7999 203.996 80.3685 201.453 78.0599C197.753 74.6976 191.505 78.0289 189.176 80.1775C188.607 80.7043 187.834 81.541 188.235 82.2743C188.258 82.3208 188.421 82.6204 188.769 82.6927C188.81 82.703 189.037 82.7495 189.269 82.5997C189.507 82.4448 189.699 81.9438 190.372 81.3602C191.476 80.4047 194.043 78.7881 196.981 78.8243C198.967 78.8449 199.984 79.7488 200.5 81.1846C201.093 82.8373 200.982 85.084 200.68 87.0673C200.233 86.8968 199.629 86.6747 198.985 86.4578C198.596 86.3287 197.382 86.024 196.969 85.9568C196.877 85.9413 196.04 85.7916 195.129 85.7141C194.78 85.6831 193.787 85.6624 192.782 85.7761C192.672 85.7864 192.178 85.8432 191.429 86.055C190.825 86.2254 190.175 86.5301 189.884 86.6954C187.643 87.9711 186.679 90.1351 187.05 92.4644C187.561 95.6149 190.622 98.8016 194.101 99.6848C197.022 100.429 200.268 99.5143 202.051 95.7544C202.161 96.7202 202.283 97.7325 202.353 98.125C202.359 98.1715 202.411 98.4452 202.539 98.6828C202.667 98.9204 202.655 98.9307 202.847 99.1218C202.922 99.1993 202.998 99.2768 203.085 99.3491C203.34 99.5557 203.602 99.659 203.648 99.6796C204.444 99.9947 205.129 99.7313 205.245 99.6848C205.373 99.6383 206.099 99.3542 206.441 98.5227C206.68 97.9494 206.563 97.4278 206.546 97.3348C206.517 97.1954 206.453 96.9578 206.412 96.8183V96.808ZM199.792 91.0803C199.467 92.2682 199.159 93.3528 198.572 94.2824C197.707 95.6408 196.766 95.8887 195.889 95.7699C194.118 95.5375 192.184 93.7453 191.708 92.2165C191.487 91.5141 191.656 91.2662 191.673 91.2301C191.673 91.2301 191.766 91.0338 192.074 90.8427C192.335 90.6774 192.567 90.5793 192.614 90.5638C193.044 90.383 193.334 90.3004 193.398 90.2797C193.694 90.1919 194.141 90.0318 195.041 89.8872C195.407 89.8252 195.814 89.7271 196.714 89.6238C197.26 89.5618 197.562 89.505 198.416 89.4327C198.729 89.4069 199.252 89.3294 200.262 89.2519C200.088 90.0267 199.914 90.6619 199.804 91.0803H199.792Z" fill="#FFFCEB"/>
<path fill-rule="evenodd" clip-rule="evenodd" d="M153.849 40.6298C153.475 40.491 152.296 40.1634 151.9 40.0856C151.813 40.069 150.998 39.908 150.118 39.8247C149.782 39.7913 148.815 39.7691 147.848 39.8913C147.74 39.9024 147.262 39.9635 146.54 40.1911C145.953 40.3744 145.323 40.7075 145.041 40.8852C142.869 42.2622 141.934 44.5998 142.298 47.1151C142.793 50.5132 145.758 53.9613 149.13 54.9163C151.959 55.7159 155.104 54.7331 156.831 50.6687C156.939 51.7126 157.053 52.8064 157.124 53.2284C157.135 53.2784 157.178 53.5726 157.303 53.8336C157.428 54.089 157.417 54.1001 157.602 54.3111C157.678 54.3944 157.749 54.4777 157.83 54.5554C158.08 54.7831 158.33 54.8941 158.378 54.9108C159.15 55.255 159.812 54.9663 159.926 54.9163C160.046 54.8664 160.752 54.561 161.083 53.6615C161.311 53.0452 161.202 52.4788 161.181 52.3789C161.154 52.2289 161.094 51.9735 161.05 51.8236C160.887 51.2406 160.301 49.2195 160.209 48.8808C159.926 47.8425 159.921 47.8425 159.399 45.9713C159.275 45.5271 158.84 44.0446 158.699 43.6337C158.607 43.3672 158.569 43.0173 158.444 42.7841C158.818 38.8641 158.699 34.0778 156.239 31.5848C152.655 27.9534 146.599 31.5514 144.351 33.8668C143.803 34.4332 143.053 35.3382 143.439 36.1267C143.466 36.1767 143.623 36.4987 143.955 36.5765C143.993 36.5876 144.215 36.6375 144.438 36.4765C144.666 36.3099 144.856 35.7658 145.508 35.1384C146.578 34.1056 149.065 32.3621 151.905 32.3954C153.828 32.4176 154.816 33.3949 155.316 34.944C155.891 36.7319 155.783 39.1528 155.489 41.2961C155.055 41.1073 154.474 40.8685 153.849 40.6409V40.6298ZM154.637 45.6326C154.322 46.9152 154.023 48.0868 153.453 49.0918C152.617 50.5576 151.704 50.8242 150.852 50.6964C149.136 50.441 147.262 48.5088 146.8 46.8597C146.589 46.1045 146.746 45.838 146.768 45.7936C146.768 45.7936 146.86 45.5826 147.153 45.3772C147.403 45.1995 147.631 45.094 147.675 45.0773C148.093 44.883 148.375 44.7886 148.435 44.7719C148.723 44.6775 149.157 44.5054 150.026 44.3444C150.385 44.2778 150.77 44.1723 151.644 44.0612C152.177 43.9946 152.465 43.9335 153.29 43.8558C153.589 43.828 154.105 43.7392 155.077 43.6614C154.908 44.4943 154.74 45.1884 154.631 45.6381L154.637 45.6326Z" fill="#FFFCEB"/>
<path fill-rule="evenodd" clip-rule="evenodd" d="M171.242 55.0253C172.51 54.5612 172.959 53.3086 173.189 52.5705C173.665 51.044 174.013 48.7514 174.574 45.0665C174.754 43.8922 175.36 39.5251 176.021 36.5168C176.74 33.2736 177.312 32.5579 177.491 32.3342C177.514 32.3566 177.542 32.379 177.575 32.4125C178.793 33.6483 180.167 38.0713 180.195 38.144C180.229 38.2223 180.251 38.3061 180.302 38.3732C180.453 38.5801 180.678 38.6137 180.717 38.6249C180.986 38.664 181.166 38.5354 181.199 38.5074C181.407 38.3565 181.441 38.1384 181.446 38.0992C181.463 37.9762 181.457 37.9706 181.435 37.8476C180.397 32.4237 179.32 30.6288 178.013 30.1591C176.723 29.6894 175.741 30.735 175.685 30.7909C174.17 32.2559 172.869 36.2596 171.769 40.2353C171.466 41.3256 171.197 42.3489 170.95 43.2995C170.894 43.0703 170.827 42.813 170.743 42.5111C170.709 42.3825 170.591 41.9407 170.249 40.951C169.924 40.0004 169.654 39.3462 169.649 39.3406C169.43 38.8429 169.015 37.9371 168.448 36.9474C168.106 36.3546 167.601 35.6445 167.27 35.2195C166.962 34.8225 166.715 34.5485 166.709 34.5485C166.216 34.0285 165.11 32.9269 163.629 32.323C163.579 32.3007 163.22 32.1553 162.951 32.0938C162.67 32.0267 161.627 31.7862 160.578 32.1385C160.353 32.2112 160.263 32.2895 160.241 32.3119C160.213 32.3342 160.039 32.4796 160.005 32.7256C159.966 32.994 160.151 33.3016 160.179 33.3463C160.202 33.3799 160.37 33.665 160.6 33.5868C160.701 33.5532 160.796 33.4246 160.808 33.4134C160.791 33.4358 161.369 33.4358 162.064 33.967C162.356 34.1851 163.13 34.7331 163.848 36.3323C164.011 36.6901 164.28 37.2214 164.589 38.2279C164.74 38.7143 164.976 39.3742 165.239 40.5987C165.318 40.9622 165.526 41.7115 165.772 43.1206C165.885 43.7636 165.896 43.758 166.019 44.4738C166.148 45.2175 166.159 45.2119 166.277 45.9556C166.35 46.3973 166.356 46.3973 166.429 46.839C166.636 48.0413 166.934 50.0822 166.99 50.3674C167.214 51.5976 167.461 52.6656 167.814 53.4093C168.628 55.1259 170.176 55.4055 171.242 55.0197V55.0253Z" fill="#FFFCEB"/>
<path fill-rule="evenodd" clip-rule="evenodd" d="M202.738 47.8508C204.069 50.8754 205.62 52.4967 206.669 53.387C207.299 53.9235 207.729 54.1888 208.144 54.4187C208.4 54.5602 208.686 54.7253 209.301 54.9376C209.746 55.0967 211.031 55.2559 212.065 55.1203C212.941 55.0083 215.971 54.0119 216.35 53.8174C216.867 53.5521 218.705 52.7148 218.844 52.1371C218.879 51.9897 218.767 51.6831 218.398 51.689C216.391 51.7067 215.623 51.5534 215.516 51.5416C213.893 51.4532 212.961 51.0404 212.536 50.8518C212.48 50.8282 211.927 50.6867 211.216 50.2563C210.99 50.1207 210.913 50.103 210.57 49.879C210.309 49.708 210.243 49.6844 209.941 49.4545C209.716 49.2835 208.758 48.6644 207.744 47.0903C206.48 45.1211 205.845 42.7097 205.768 42.4326C205.727 42.2793 205.39 41.1237 205.108 39.2489C206.26 38.3999 207.683 37.3032 209.157 36.0297C215.562 30.5054 217.262 26.679 217.861 24.7334C219.366 19.8576 218.101 16.1314 214.461 14.6693C210.14 12.9359 205.779 15.1115 202.983 21.7442C201.273 25.7946 200.485 30.7058 200.459 35.3222C200.454 36.5781 200.475 39.6085 201.238 43.1224C201.325 43.5115 201.816 45.7932 202.727 47.8567L202.738 47.8508ZM207.386 21.3669C209.086 18.248 210.893 17.9002 211.512 17.8176C212.628 17.6643 213.678 17.8707 214.553 18.8435C215.526 19.9224 215.746 21.8916 215.69 22.8173C215.644 23.5955 215.5 24.0436 215.434 24.3561C215.321 24.8631 214.932 25.9833 214.733 26.4196C212.772 30.6646 208.236 34.4615 204.888 37.3681C204.796 36.3953 204.739 35.3105 204.734 34.1313C204.724 29.5503 205.599 24.6391 207.381 21.3669H207.386Z" fill="#FFFCEB"/>
<path fill-rule="evenodd" clip-rule="evenodd" d="M145.696 96.5111C143.226 96.7814 142.944 96.3868 141.642 95.657C139.956 94.7056 137.876 91.3107 137.887 90.1863C137.887 90.1863 141.648 87.2995 143.424 85.2723C149.806 77.9906 150.443 73.2983 150.652 71.2549C151.148 66.422 150.59 63.2704 146.592 61.7676C142.499 60.2269 138.191 62.492 135.288 68.8006C133.517 72.655 132.604 77.277 132.44 81.5963C132.395 82.7694 132.328 85.6075 132.959 88.8672C133.027 89.2294 133.438 91.3431 134.256 93.246C135.451 96.0246 136.382 97.176 137.887 98.2843C139.392 99.3925 141.529 100.036 143.271 99.906C145.019 99.7763 147.15 98.4735 147.568 97.7707C148.081 96.922 146.823 96.3868 145.696 96.5111ZM136.601 80.3314C136.737 76.0445 137.729 71.4171 139.544 68.2979C141.281 65.3192 143.875 65.2382 144.968 65.6977C146.575 66.3734 147.528 71.0711 146.519 74.7147C145.228 79.3637 138.682 87.9374 137.357 87.786C136.821 86.8995 136.545 82.2396 136.607 80.3314H136.601Z" fill="#FFFCEB"/>
<path fill-rule="evenodd" clip-rule="evenodd" d="M220.016 61.7676C215.786 60.2269 211.335 62.492 208.335 68.8006C206.505 72.655 205.561 77.277 205.393 81.5963C205.346 82.7694 205.276 85.6075 205.929 88.8672C205.998 89.2294 206.424 91.3431 207.269 93.246C208.504 96.0246 209.465 97.176 211.021 98.2843C212.576 99.3925 214.784 100.036 216.584 99.906C218.39 99.7763 220.593 98.4735 221.024 97.7707C221.554 96.922 220.255 96.3868 219.09 96.5111C216.538 96.7814 216.247 96.3868 214.901 95.657C213.159 94.7056 211.009 91.3107 211.021 90.1863C211.021 90.1863 214.907 87.2995 216.742 85.2723C223.337 77.9906 223.995 73.2983 224.211 71.2549C224.723 66.422 224.147 63.2704 220.016 61.7676ZM219.94 74.7092C218.606 79.3583 211.842 87.932 210.473 87.7806C209.919 86.8941 209.634 82.2342 209.698 80.3259C209.838 76.0391 210.863 71.4117 212.739 68.2925C214.534 65.3138 217.214 65.2327 218.344 65.6922C220.004 66.368 220.989 71.0657 219.946 74.7092H219.94Z" fill="#FFFCEB"/>
<path fill-rule="evenodd" clip-rule="evenodd" d="M186.764 94.9984C186.596 94.8751 186.219 94.8546 185.946 94.9111C184.369 95.2194 181.261 96.2419 179.054 95.4455C169.29 91.9361 174.054 78.4381 182.199 80.8788C182.906 81.0894 183.53 81.4234 184.17 81.6135C184.846 81.8088 185.789 82.1787 186.271 81.5673C186.921 80.7452 184.489 78.1144 182.859 77.4413C181.072 76.7066 178.976 76.1928 175.8 77.1536C174.06 77.6828 172.309 79.0239 170.774 81.855C167.954 87.0497 168.965 95.0498 173.384 98.2715C177.382 101.19 182.278 99.4841 183.478 98.8366C184.788 98.1327 185.705 97.3003 186.35 96.6324C186.764 96.2059 186.879 95.949 186.942 95.6561C187.026 95.2656 186.932 95.1269 186.764 94.9984Z" fill="#FFFCEB"/>
<path fill-rule="evenodd" clip-rule="evenodd" d="M249.239 98.1716C251.242 97.5356 253.748 95.4064 253.957 95.1022C254.13 94.8534 254.055 94.6488 254.038 94.6156C253.968 94.4552 253.835 94.4109 253.818 94.3999C253.771 94.3833 253.719 94.3778 253.667 94.3778C253.505 94.3888 253.407 94.4939 253.389 94.5105C251.861 95.9816 250.397 96.3853 247.994 97.237C247.155 96.7061 242.75 96.2249 241.951 96.0037C241.818 95.3566 241.922 93.7086 241.922 93.7086C242.015 93.9574 251.473 87.5477 255.282 80.0318C257.58 75.4968 258.611 70.2429 255.647 66.084C252.081 61.0845 245.766 61.7813 242.102 65.5475C239.769 67.9422 238.866 71.2937 238.339 73.4284C236.724 80.0041 236.678 89.3451 237.488 98.1772C237.112 98.3265 236.909 98.4482 236.776 98.5311C235.711 99.2169 236.07 100.163 236.088 100.218C236.348 100.965 237.135 101.153 237.535 101.23C237.621 101.247 237.708 101.263 237.807 101.274C237.899 102.076 237.998 102.867 238.102 103.647C238.49 106.589 238.872 108.729 238.872 108.735C240.226 115.731 241.592 119.724 242.015 120.941C244.545 128.213 246.837 129.988 248.672 130.447C249.233 130.586 252.909 131.482 255.051 125.481C257.476 118.695 256.972 105.571 251.224 99.7368C251.022 99.5321 249.447 98.3376 249.245 98.1606L249.239 98.1716ZM243.213 75.9392C243.369 75.0765 243.694 73.257 244.336 71.6753C244.938 70.1931 246.067 69.2308 246.246 69.087C247.636 67.9422 249.117 67.9533 249.453 67.9643C251.485 68.0141 252.481 69.358 252.596 69.5571C254.813 73.3731 249.957 83.9695 245.76 88.1118C244.649 89.2068 242.837 90.6336 241.946 91.3028C241.899 90.9378 242.246 81.2761 243.219 75.9392H243.213ZM249.772 125.664C249.772 125.664 249.766 125.664 249.76 125.658H249.772V125.664ZM249.777 125.68C249.777 125.68 249.783 125.664 249.789 125.658C249.766 125.63 249.563 125.475 249.256 125.033C247.693 122.755 246.003 117.866 245.754 117.147C244.429 113.369 243.566 108.95 243.456 108.381C242.692 104.432 242.189 100.08 242.218 100.046C247.45 100.494 251.219 105.013 252.156 108.27C255.109 118.529 251.167 126.001 249.777 125.686V125.68Z" fill="#FFFCEB"/>
<path fill-rule="evenodd" clip-rule="evenodd" d="M161.326 75.9515C157.846 73.8913 154.867 74.8303 152.46 76.7413C147.854 80.3921 147.17 87.5005 148.096 91.8914C148.721 94.8574 150.72 97.6355 153.569 99.0716C157.017 100.811 162.027 99.8227 164.623 96.68C168.577 91.9025 167.667 83.6121 165.496 80.2043C165.496 80.2043 163.917 77.4814 161.326 75.946V75.9515ZM151.684 85.1145C152.562 79.6852 156.263 78.8512 156.844 78.8015C158.078 78.6965 160.244 79.0997 161.849 81.1875C162.824 82.4578 163.287 83.6674 163.33 85.2581C163.583 94.2498 149.723 97.2489 151.684 85.1145Z" fill="#FFFCEB"/>
<path fill-rule="evenodd" clip-rule="evenodd" d="M268.793 77.7045C265.424 75.796 262.537 76.6669 260.206 78.4357C255.741 81.8227 255.079 88.4085 255.979 92.4783C256.589 95.2309 258.522 97.8007 261.282 99.134C264.624 100.747 269.471 99.8276 271.987 96.919C275.817 92.4891 274.938 84.8011 272.835 81.6453C272.835 81.6453 271.309 79.1238 268.793 77.6992V77.7045ZM259.46 86.1989C260.307 81.1668 263.899 80.3926 264.46 80.3496C265.657 80.2528 267.755 80.6238 269.307 82.5592C270.255 83.7366 270.7 84.8602 270.742 86.3333C270.991 94.6664 257.563 97.4513 259.46 86.1989Z" fill="#FFFCEB"/>
<path fill-rule="evenodd" clip-rule="evenodd" d="M289.684 79.4594C285.989 77.7015 282.823 78.5037 280.266 80.1328C275.369 83.2524 274.643 89.3183 275.63 93.0668C276.298 95.6021 278.419 97.969 281.446 99.1971C285.112 100.683 290.427 99.8358 293.187 97.1569C297.388 93.0767 296.423 85.9957 294.117 83.089C294.117 83.089 292.443 80.7666 289.684 79.4544V79.4594ZM279.441 87.2832C280.371 82.6483 284.31 81.9353 284.926 81.8956C286.239 81.8065 288.539 82.1482 290.242 83.9308C291.282 85.0153 291.77 86.0502 291.816 87.4069C292.089 95.0822 277.361 97.6472 279.441 87.2832Z" fill="#FFFCEB"/>
<path fill-rule="evenodd" clip-rule="evenodd" d="M95.6845 67.1063C81.1666 60.2986 65.1489 57.5323 49.1704 57.5656C49.1872 57.1886 49.2095 56.8172 49.2431 56.4569C49.2431 52.726 56.1215 44.2109 61.1417 43.1354C67.7514 41.877 74.8984 52.0164 76.8348 50.5307C78.4019 49.178 77.2546 46.4949 76.8348 44.3217C75.5084 39.3879 76.2024 31.9593 76.7005 29.6532C76.8684 28.5001 77.5232 25.124 79.9969 20.5948C81.3066 18.1389 86.8641 12.0852 87.7428 10.7104C90.8265 5.88185 90.709 3.34838 90.709 3.34838C90.709 0.826009 89.5505 0 87.7428 0C81.3178 0 74.8312 3.48143 70.2699 6.25882C69.1114 6.96287 60.1399 12.8281 54.4201 14.8294C49.0696 16.62 38.3016 17.5735 34.9996 19.4417C31.7423 20.689 29.8898 22.901 31.9661 24.7137C34.7365 27.1419 43.5849 28.8715 44.9393 32.1256C45.6333 33.0015 45.068 36.0894 44.9393 37.6915C44.5923 40.3525 43.5793 43.3405 42.9021 46.1401C41.945 49.8987 41.307 53.8624 41.1671 57.8206C38.0889 57.998 35.0163 58.2752 31.9661 58.6466C22.7932 59.9605 12.8702 62.5438 5.83521 69.1131L5.8464 69.0965L5.83521 69.0854C-2.62139 77.1126 -1.44049 87.8119 6.50681 95.7172C10.9898 100.274 16.5864 103.345 22.3958 105.441L23.2969 103.085C11.1521 98.4891 -4.34517 84.2252 8.7287 72.1732C17.3196 64.9664 29.7331 63.2811 41.307 63.0372C41.4917 65.0717 41.8499 67.0841 42.3872 69.0632C33.5388 69.7284 24.8807 71.5468 18.1983 74.7233C11.236 77.9719 8.08508 85.284 14.4597 91.1769C25.9049 100.862 54.7839 102.325 69.5983 102.098C79.941 101.715 97.9119 100.989 105.675 93.5552C116.387 82.3181 106.805 72.2564 95.6845 67.1118V67.1063ZM40.0813 22.8954C43.5177 22.8954 51.7784 22.0694 51.7784 22.0694C55.1644 21.6924 60.7107 19.414 64.3262 17.4571C66.4138 16.2541 71.3389 13.5044 73.0179 12.5121C74.6913 11.5198 78.3347 9.70699 83.2038 7.78333C82.8792 8.08269 82.5714 8.38205 82.2692 8.69249C79.1406 11.9799 75.7714 14.9458 73.5551 19.0924C71.9433 22.2135 71.2829 24.0263 70.4714 28.5555C69.6543 33.0736 71.2717 39.7482 72.5645 44.3273C72.3127 44.1222 69.3408 41.2284 69.0722 41.0288C64.4549 37.1593 60.2518 37.6305 55.5618 41.7716C54.1178 43.0079 52.881 44.4326 51.7784 45.946V45.9294C51.9743 45.3917 52.187 44.8539 52.3941 44.3217C53.7149 40.7904 55.1085 37.4143 54.4089 33.0792C53.6309 28.2894 44.2845 24.9577 40.0813 22.901V22.8954ZM100.822 88.8652C99.2887 90.3066 97.3355 91.0772 95.2591 91.7978C87.0264 94.3756 78.1444 94.8801 69.4472 95.0631C63.5371 95.1296 57.6046 94.8912 51.7169 94.359C42.2249 93.3612 26.778 91.6814 19.3456 85.8384C18.674 85.2064 18.0416 84.519 18.3494 83.7041C19.6534 81.6474 22.7932 80.5774 25.1886 79.6738L25.1998 79.6627C31.468 77.7224 38.3688 76.5804 45.3534 76.209C50.6591 85.2674 61.7685 89.2311 71.8314 88.6878C75.9897 88.4217 84.6142 87.6401 85.8679 82.6009C86.1981 81.5476 85.728 79.757 85.0508 79.0252C84.5806 78.4376 84.0713 77.8777 83.5508 77.3676C79.6779 73.7365 74.5066 71.9293 69.6654 70.7485C64.0576 69.479 57.3807 68.7971 50.5024 68.7805C49.8755 66.9566 49.4782 65.0274 49.2767 63.0649C49.6125 63.0705 49.9483 63.076 50.2841 63.0816C62.0595 63.4031 73.835 65.1992 84.8884 69.3182C90.9497 71.6355 102.048 76.1203 103.609 82.6896C104.001 85.0068 102.473 87.1578 100.833 88.8652H100.822ZM55.3603 76.2256C59.6865 76.4696 63.9288 77.0239 67.9529 77.8832H67.9585C70.6673 78.5928 73.3928 79.3689 75.7267 80.7105C69.3073 82.0188 61.5894 80.7105 56.6755 77.2512C56.211 76.9241 55.7745 76.5804 55.3603 76.2256Z" fill="#FFFCEB"/>
<path fill-rule="evenodd" clip-rule="evenodd" d="M183.249 51.3256C186.267 55.2214 191.586 53.8304 194.205 53.0683C194.325 53.031 200.231 50.8833 201.447 50.2598C201.764 50.0999 201.748 49.6469 201.502 49.3378C201.348 49.1459 201.14 49.1246 201.102 49.1193C201.025 49.1086 200.855 49.1459 200.57 49.2312C191.499 52.0291 187.248 50.7554 186.097 48.5011C185.719 47.755 185.615 46.7797 185.747 45.7032C186.059 45.8151 186.41 45.9377 186.782 46.0549C186.908 46.0975 187.746 46.364 188.382 46.5132C191.241 47.1954 193.942 46.7104 195.81 45.8631C196.089 45.7351 198.127 44.7759 198.691 42.2071C198.779 41.7968 198.916 41.0293 198.938 39.8569C198.965 38.2634 198.669 36.8138 198.434 36.0198C198.078 34.8367 197.809 34.2185 197.388 33.5097C197.004 32.8701 196.325 32.188 195.892 31.7563C195.793 31.6551 195.306 31.1701 194.517 30.7331C192.353 29.55 189.379 29.6672 186.432 32.7476C186.202 32.9874 185.029 34.2131 183.956 36.1797C181.249 41.1253 180.346 47.5738 183.249 51.3203V51.3256ZM191.816 34.5968C193.383 34.453 195.021 35.3216 195.711 37.8104C196.489 40.5977 195.317 42.2871 194.314 42.7827C191.362 44.2429 186.968 42.9799 186.218 42.852C186.936 37.5546 189.614 34.7994 191.811 34.5968H191.816ZM182.679 43.8699C182.679 43.8699 182.674 43.8699 182.668 43.8699C182.668 43.8699 182.674 43.8699 182.679 43.8699Z" fill="#FFFCEB"/>
<path fill-rule="evenodd" clip-rule="evenodd" d="M128.872 45.292C128.872 45.292 133.865 51.9277 138.907 54.9279C139.498 55.2815 139.906 55.171 140.1 55.0881C140.492 54.9224 140.471 53.9334 140.073 53.1985C139.493 52.1211 138.256 50.8945 137.101 49.7287C135.354 47.9662 131.173 43.5461 131.291 43.6455C132.065 44.3141 138.289 44.2478 139.342 40.6453C141.062 34.7997 134.07 26.8766 127.561 31.352C124.777 33.2637 124.266 36.8496 124.492 41.2697C124.562 42.5902 124.416 51.8835 125.669 53.7345C126.969 55.6572 129.039 55.1655 129.791 53.6405C130.232 52.7565 130.205 51.9609 129.506 49.0878C129.377 48.5463 129.001 45.828 128.872 45.281V45.292ZM128.184 40.4796C127.711 35.2473 129.775 34.3246 131.382 34.1367C133.43 33.8991 137.246 36.5512 136.268 39.474C135.435 41.9659 128.297 41.0929 128.243 41.1095C128.211 40.8222 128.195 40.6233 128.179 40.4796H128.184Z" fill="#FFFCEB"/>
</svg>
