<svg width="81" height="78" viewBox="0 0 81 78" fill="none" xmlns="http://www.w3.org/2000/svg">
<path d="M4.2728 51.1186C9.44163 46.2571 16.7244 44.35 23.4555 43.3788C25.6915 43.1039 27.9449 42.905 30.2098 42.7704C30.3086 39.8395 30.779 36.9086 31.4817 34.1298C31.9812 32.0647 32.7246 29.8474 32.9801 27.8818C33.073 26.7001 33.4912 24.4127 32.9801 23.7633C31.987 21.353 25.494 20.0719 23.4555 18.2817C21.9339 16.942 23.2929 15.304 25.6857 14.3797C28.1075 12.999 36.0175 12.2912 39.9435 10.969C44.1424 9.48894 50.7283 5.15398 51.5762 4.63332C54.9273 2.57406 59.6837 0 64.4054 0C65.7353 0 66.5833 0.608415 66.5833 2.47461C66.5833 2.47461 66.6704 4.35251 64.4054 7.9211C63.7607 8.93902 59.6837 13.4144 58.7197 15.2338C56.9019 18.5918 56.4198 21.0839 56.2979 21.938C55.9378 23.6463 55.4267 29.1396 56.3966 32.7901C56.7044 34.393 57.5465 36.3762 56.3966 37.3824C54.9737 38.4823 49.7294 30.9824 44.88 31.9125C41.1979 32.7082 36.1453 39.0029 36.1453 41.7642C36.122 42.0392 36.1046 42.3083 36.093 42.5891C47.8245 42.5657 59.5792 44.6074 70.2363 49.6443C78.4019 53.4469 85.4349 60.8883 77.5714 69.2014C71.8682 74.6947 58.679 75.2387 51.0884 75.5195C40.2164 75.6892 19.0127 74.6128 10.6148 67.4463C5.93379 63.088 8.24525 57.6766 13.356 55.2722C18.2577 52.9263 24.6171 51.5807 31.1158 51.0893C30.7209 49.6268 30.4596 48.1409 30.3202 46.6315C21.8236 46.8129 12.7113 48.059 6.40421 53.3884C-3.18424 62.3041 8.18717 72.8577 17.1019 76.2567L16.4399 78C12.177 76.4497 8.07101 74.174 4.77807 70.8043C-1.05864 64.96 -1.92397 57.0389 4.28442 51.1069L4.2728 51.1186ZM40.7914 30.8946C44.2354 27.835 47.325 27.484 50.7109 30.3506C50.9084 30.5027 53.092 32.638 53.2721 32.7901C52.3196 29.4028 51.1349 24.4712 51.733 21.1249C52.3312 17.7786 52.8191 16.4331 53.998 14.1281C55.63 11.0568 58.0983 8.86882 60.3923 6.43516C60.613 6.21286 60.8395 5.9847 61.0776 5.76239C57.5001 7.18983 54.8285 8.53536 53.5973 9.26663C52.3661 9.9979 48.7479 12.0338 47.2147 12.923C44.5606 14.368 40.4894 16.0587 38.0037 16.3336C38.0037 16.3336 31.9405 16.942 29.42 16.942C32.5039 18.4631 39.3627 20.926 39.9377 24.4712C40.4488 27.677 39.4266 30.1751 38.4567 32.7901C38.3057 33.1879 38.1547 33.5857 38.0037 33.9835C38.811 32.8661 39.717 31.8131 40.7798 30.8946H40.7914ZM13.4722 61.9179C13.2515 62.5205 13.7103 63.0295 14.2039 63.4975C19.6631 67.8207 31.0055 69.061 37.9689 69.7981C42.2956 70.1901 46.6455 70.3656 50.9839 70.3188C57.3723 70.1901 63.8885 69.8157 69.9285 67.9085C71.4501 67.3703 72.8846 66.8087 74.0113 65.7381C75.2134 64.4803 76.3343 62.8832 76.0497 61.1691C74.8998 56.3077 66.7517 52.9906 62.3088 51.2765C54.1955 48.2345 45.5479 46.8948 36.9061 46.6608C36.6564 46.6608 36.4124 46.6491 36.1627 46.6491C36.3079 48.0999 36.5983 49.5273 37.0629 50.8787C42.1156 50.8904 47.0114 51.3935 51.1291 52.3354C54.6833 53.2071 58.4816 54.5468 61.3215 57.232C61.7048 57.6122 62.0765 58.0276 62.425 58.4605C62.9186 59.0046 63.2671 60.3267 63.0232 61.1106C62.0997 64.8372 55.7694 65.4163 52.7204 65.6094C45.333 66.0131 37.179 63.0821 33.2821 56.3779C28.1597 56.6528 23.0896 57.4952 18.49 58.9344C16.7302 59.6071 14.4246 60.3969 13.4663 61.9179H13.4722ZM40.6404 56.3896C40.9424 56.6528 41.2618 56.9102 41.6045 57.1501C45.2052 59.7066 50.8735 60.6777 55.5835 59.7124C53.8703 58.7238 51.8666 58.1446 49.8804 57.6181C46.9243 56.9746 43.8114 56.5709 40.6346 56.3896H40.6404Z" fill="black"/>
</svg>
