<svg width="11" height="17" viewBox="0 0 11 17" fill="none" xmlns="http://www.w3.org/2000/svg">
<path d="M5.50028 0C2.47735 0 0 2.67199 0 5.93318C0 7.19678 0.373082 8.37117 1.00444 9.33637L4.82899 16.4889C5.36458 17.2459 5.72065 17.1021 6.16602 16.4489L10.3845 8.68297C10.4696 8.51617 10.5365 8.33857 10.5947 8.15717C10.8623 7.45144 11 6.69598 11 5.93318C11.0002 2.67199 8.52357 0 5.50028 0ZM5.50028 2.77999C7.1283 2.77999 8.42281 4.17719 8.42281 5.93318C8.42281 7.68917 7.1283 9.08597 5.50028 9.08597C3.87243 9.08597 2.57737 7.68957 2.57737 5.93338C2.57737 4.17719 3.87243 2.78019 5.50009 2.78019" fill="#140000"/>
</svg>
