<svg width="23" height="23" viewBox="0 0 23 23" fill="none" xmlns="http://www.w3.org/2000/svg">
<path d="M11.2998 3.99902C12.5064 3.99913 13.6634 4.47889 14.5166 5.33203C15.3699 6.18532 15.8496 7.34307 15.8496 8.5498C15.8495 9.7564 15.3698 10.9134 14.5166 11.7666C13.6634 12.6198 12.5064 13.0995 11.2998 13.0996C10.0931 13.0996 8.93532 12.6199 8.08203 11.7666C7.22889 10.9134 6.74913 9.75635 6.74902 8.5498C6.74902 7.34307 7.22874 6.18532 8.08203 5.33203C8.93532 4.47874 10.0931 3.99902 11.2998 3.99902ZM11.2998 5.39941C10.4644 5.39941 9.66301 5.73153 9.07227 6.32227C8.48153 6.91301 8.14941 7.71437 8.14941 8.5498C8.14952 9.38505 8.48168 10.1857 9.07227 10.7764C9.66301 11.3671 10.4644 11.6992 11.2998 11.6992C11.7133 11.6992 12.1229 11.6182 12.5049 11.46C12.8871 11.3017 13.2339 11.0689 13.5264 10.7764C13.8189 10.4839 14.0517 10.1371 14.21 9.75488C14.3682 9.37286 14.4492 8.9633 14.4492 8.5498C14.4492 8.13614 14.3683 7.72593 14.21 7.34375C14.0517 6.9616 13.8189 6.61475 13.5264 6.32227C13.2339 6.02985 12.8869 5.79793 12.5049 5.63965C12.1228 5.4814 11.7133 5.39947 11.2998 5.39941Z" fill="black" stroke="black" stroke-width="0.3"/>
<path d="M11.2998 0.149414C17.4579 0.149414 22.4502 5.14166 22.4502 11.2998C22.4502 17.4579 17.4579 22.4502 11.2998 22.4502C5.14166 22.4502 0.149414 17.4579 0.149414 11.2998C0.149414 5.14166 5.14166 0.149414 11.2998 0.149414ZM16.3496 17.3594C12.5928 16.8393 10.0151 16.7932 6.2666 17.3408C5.77315 17.4128 5.39956 17.8445 5.39941 18.3643V18.3652C5.39878 18.5914 5.47315 18.8114 5.61035 18.9912L5.99512 19.4814C7.5733 20.5081 9.41671 21.0532 11.2998 21.0498L11.6455 21.0439C13.3644 20.9859 15.0388 20.4714 16.4961 19.5508L16.9795 18.9746C17.1208 18.8018 17.2002 18.5794 17.2002 18.3496V18.3486C17.2014 18.1091 17.1161 17.8769 16.96 17.6953C16.8038 17.5136 16.5867 17.395 16.3496 17.3604V17.3594ZM11.2998 1.5498C5.9151 1.5498 1.5498 5.9151 1.5498 11.2998L1.56055 11.7705C1.66628 14.0167 2.55021 16.1576 4.06055 17.8281C4.27419 16.8721 5.04709 16.1044 6.06445 15.9561C9.96032 15.3867 12.6721 15.4379 16.543 15.9736C17.5537 16.1136 18.3281 16.8732 18.54 17.8252C20.1543 16.0386 21.0531 13.7149 21.0498 11.2998C21.0498 5.9151 16.6845 1.5498 11.2998 1.5498Z" fill="black" stroke="black" stroke-width="0.3"/>
<path d="M11.2998 0.149414C17.4579 0.149414 22.4502 5.14166 22.4502 11.2998C22.4502 17.4579 17.4579 22.4502 11.2998 22.4502C5.14166 22.4502 0.149414 17.4579 0.149414 11.2998C0.149414 5.14166 5.14166 0.149414 11.2998 0.149414ZM16.3496 17.3594C12.5928 16.8393 10.0151 16.7932 6.2666 17.3408C5.77315 17.4128 5.39956 17.8445 5.39941 18.3643V18.3652C5.39878 18.5914 5.47315 18.8114 5.61035 18.9912L5.99512 19.4814C7.5733 20.5081 9.41671 21.0532 11.2998 21.0498L11.6455 21.0439C13.3644 20.9859 15.0388 20.4714 16.4961 19.5508L16.9795 18.9746C17.1208 18.8018 17.2002 18.5794 17.2002 18.3496V18.3486C17.2014 18.1091 17.1161 17.8769 16.96 17.6953C16.8038 17.5136 16.5867 17.395 16.3496 17.3604V17.3594ZM11.2998 1.5498C5.9151 1.5498 1.5498 5.9151 1.5498 11.2998L1.56055 11.7705C1.66628 14.0167 2.55021 16.1576 4.06055 17.8281C4.27419 16.8721 5.04709 16.1044 6.06445 15.9561C9.96032 15.3867 12.6721 15.4379 16.543 15.9736C17.5537 16.1136 18.3281 16.8732 18.54 17.8252C20.1543 16.0386 21.0531 13.7149 21.0498 11.2998C21.0498 5.9151 16.6845 1.5498 11.2998 1.5498Z" fill="black" stroke="black" stroke-width="0.3"/>
</svg>
