<svg width="41" height="41" viewBox="0 0 41 41" fill="none" xmlns="http://www.w3.org/2000/svg">
<path d="M0 20.5C0 20.0358 0 19.8036 0.00385522 19.6073C0.214726 8.86919 8.86919 0.214726 19.6073 0.00385522C19.8036 0 20.0358 0 20.5 0C20.9642 0 21.1964 0 21.3927 0.00385522C32.1308 0.214726 40.7853 8.86919 40.9961 19.6073C41 19.8036 41 20.0358 41 20.5C41 20.9642 41 21.1964 40.9961 21.3927C40.7853 32.1308 32.1308 40.7853 21.3927 40.9961C21.1964 41 20.9642 41 20.5 41C20.0358 41 19.8036 41 19.6073 40.9961C8.86919 40.7853 0.214726 32.1308 0.00385522 21.3927C0 21.1964 0 20.9642 0 20.5Z" fill="#00661D"/>
<path d="M28.4843 14.4122C28.9111 13.2317 27.7672 12.0877 26.5867 12.5155L12.1594 17.7335C10.975 18.1622 10.8318 19.7784 11.9213 20.4097L16.5266 23.076L20.639 18.9634C20.8253 18.7834 21.0748 18.6839 21.3338 18.6861C21.5928 18.6884 21.8406 18.7923 22.0237 18.9754C22.2069 19.1586 22.3108 19.4064 22.313 19.6654C22.3153 19.9244 22.2157 20.1739 22.0358 20.3603L17.9234 24.4728L20.5906 29.0784C21.2208 30.168 22.8369 30.0238 23.2656 28.8403L28.4843 14.4122Z" fill="#FFFCEB"/>
</svg>
