<svg width="32" height="32" viewBox="0 0 32 32" fill="none" xmlns="http://www.w3.org/2000/svg">
<path d="M19.9608 0.0481531C21.5522 0.443621 23.0753 1.07504 24.4797 1.92144C24.7612 2.09127 24.9852 2.34162 25.1229 2.64012C25.2606 2.93862 25.3056 3.27156 25.252 3.59589C25.0664 4.72808 25.3474 5.59406 25.8765 6.12318C26.4056 6.6523 27.2732 6.93329 28.4038 6.74761C28.7281 6.69409 29.061 6.73908 29.3595 6.87676C29.658 7.01444 29.9084 7.23848 30.0782 7.51993C30.9246 8.92432 31.556 10.4475 31.9515 12.0388C32.0309 12.3582 32.0125 12.694 31.8988 13.0028C31.7852 13.3116 31.5814 13.5791 31.3139 13.7708C30.3822 14.4396 29.9665 15.2497 29.9665 15.999C29.9665 16.7483 30.3822 17.5601 31.3139 18.2289C31.5811 18.4204 31.7847 18.6877 31.8983 18.9962C32.012 19.3046 32.0305 19.6401 31.9515 19.9592C31.556 21.5505 30.9246 23.0737 30.0782 24.4781C29.9084 24.7595 29.658 24.9836 29.3595 25.1213C29.061 25.2589 28.7281 25.3039 28.4038 25.2504C27.2716 25.0647 26.4056 25.3474 25.8765 25.8748C25.3474 26.404 25.0664 27.2716 25.252 28.4021C25.3059 28.7267 25.2611 29.06 25.1234 29.3588C24.9857 29.6577 24.7615 29.9083 24.4797 30.0782C23.0753 30.9246 21.5522 31.556 19.9608 31.9515C19.6415 32.0309 19.3057 32.0125 18.9969 31.8988C18.6881 31.7852 18.4205 31.5814 18.2289 31.3139C17.5601 30.3806 16.75 29.9665 16.0006 29.9665C15.2513 29.9665 14.4396 30.3806 13.7708 31.3139C13.5792 31.5811 13.3119 31.7847 13.0035 31.8983C12.695 32.012 12.3596 32.0305 12.0405 31.9515C10.4491 31.556 8.92597 30.9246 7.52157 30.0782C7.23983 29.9083 7.01559 29.6577 6.8779 29.3588C6.7402 29.06 6.69538 28.7267 6.74925 28.4021C6.93494 27.2716 6.6523 26.4056 6.12482 25.8765C5.59406 25.3474 4.72808 25.0647 3.59753 25.252C3.27294 25.3059 2.93966 25.2611 2.64083 25.1234C2.342 24.9857 2.09138 24.7615 1.92144 24.4797C1.07474 23.0743 0.443312 21.55 0.0481533 19.9576C-0.0308452 19.6385 -0.0123176 19.303 0.101342 18.9945C0.215001 18.6861 0.418567 18.4188 0.685727 18.2272C1.61908 17.5601 2.03318 16.7483 2.03318 15.999C2.03318 15.2513 1.61908 14.4379 0.685727 13.7708C0.418567 13.5792 0.215001 13.3119 0.101342 13.0035C-0.0123176 12.695 -0.0308452 12.3596 0.0481533 12.0405C0.443467 10.4486 1.07489 8.92483 1.92144 7.51993C2.09138 7.23819 2.342 7.01395 2.64083 6.87625C2.93966 6.73856 3.27294 6.69374 3.59753 6.74761C4.72808 6.93329 5.59406 6.6523 6.12318 6.12318C6.6523 5.59406 6.93494 4.72644 6.74761 3.59589C6.69409 3.27156 6.73908 2.93862 6.87676 2.64012C7.01444 2.34162 7.23848 2.09127 7.51993 1.92144C8.92483 1.07489 10.4486 0.443466 12.0405 0.0481531C12.3596 -0.0308453 12.695 -0.0123174 13.0035 0.101342C13.3119 0.215001 13.5792 0.418567 13.7708 0.685727C14.4396 1.61744 15.2513 2.03318 16.0006 2.03318C16.75 2.03318 17.5617 1.61744 18.2289 0.685727C18.4204 0.418567 18.6877 0.215001 18.9962 0.101342C19.3046 -0.0123174 19.6417 -0.0308453 19.9608 0.0481531ZM16.0006 7.78285C13.8216 7.78285 11.7318 8.64847 10.1909 10.1893C8.65012 11.7301 7.78449 13.8199 7.78449 15.999C7.78449 18.1781 8.65012 20.2679 10.1909 21.8087C11.7318 23.3495 13.8216 24.2152 16.0006 24.2152C18.1797 24.2152 20.2695 23.3495 21.8104 21.8087C23.3512 20.2679 24.2168 18.1781 24.2168 15.999C24.2168 13.8199 23.3512 11.7301 21.8104 10.1893C20.2695 8.64847 18.1797 7.78285 16.0006 7.78285ZM16.0006 11.0693C17.3081 11.0693 18.562 11.5887 19.4865 12.5132C20.411 13.4377 20.9303 14.6916 20.9303 15.999C20.9303 17.3064 20.411 18.5603 19.4865 19.4848C18.562 20.4093 17.3081 20.9287 16.0006 20.9287C14.6932 20.9287 13.4393 20.4093 12.5148 19.4848C11.5903 18.5603 11.071 17.3064 11.071 15.999C11.071 14.6916 11.5903 13.4377 12.5148 12.5132C13.4393 11.5887 14.6932 11.0693 16.0006 11.0693Z" fill="#140000"/>
</svg>
