<svg width="17" height="17" viewBox="0 0 17 17" fill="none" xmlns="http://www.w3.org/2000/svg">
<path d="M13.2406 11.8616C12.1426 12.1252 10.9964 12.1124 9.90465 11.8244C8.81286 11.5364 7.80954 10.9821 6.98454 10.2111C6.15955 9.44015 5.53863 8.47663 5.17739 7.40682C4.81615 6.33702 4.72587 5.19432 4.91463 4.08105C4.88635 4.10925 4.85601 4.13529 4.82386 4.15897C4.59894 4.33007 4.3178 4.39353 3.7555 4.52045L3.24542 4.63612C1.26936 5.08354 0.281335 5.30685 0.0459755 6.06274C-0.188581 6.81781 0.484564 7.60583 1.83166 9.18105L2.18028 9.58831C2.56264 10.0357 2.75462 10.2598 2.84057 10.5362C2.92652 10.8133 2.8976 11.1121 2.83977 11.709L2.78675 12.2528C2.58352 14.3549 2.48151 15.4056 3.09682 15.8723C3.71213 16.339 4.6375 15.9141 6.48664 15.0618L6.96619 14.8417C7.49154 14.5991 7.75421 14.4787 8.03294 14.4787C8.31168 14.4787 8.57435 14.5991 9.1005 14.8417L9.57845 15.0618C11.4284 15.9133 12.3538 16.339 12.9683 15.8731C13.5844 15.4056 13.4824 14.3549 13.2791 12.2528L13.2406 11.8616Z" fill="#D74304"/>
<path d="M5.74586 2.73756L5.48239 3.20989C5.19321 3.72881 5.04862 3.98826 4.8237 4.15936C4.85583 4.13526 4.88609 4.10929 4.91447 4.08144C4.72567 5.19479 4.81594 6.33758 5.17722 7.40747C5.5385 8.47736 6.1595 9.44094 6.9846 10.2119C7.80969 10.9829 8.81313 11.5372 9.90504 11.8252C10.9969 12.1131 12.1432 12.1258 13.2412 11.862L13.2252 11.7093C13.1681 11.1125 13.1392 10.8137 13.2252 10.5366C13.3111 10.2602 13.5023 10.0361 13.8855 9.5887L14.2341 9.18144C15.5812 7.60702 16.2543 6.81901 16.019 6.06312C15.7844 5.30724 14.7964 5.08313 12.8203 4.63651L12.3094 4.52083C11.7479 4.39392 11.4668 4.33046 11.2411 4.15936C11.0162 3.98826 10.8716 3.72881 10.5824 3.20989L10.3197 2.73756C9.30196 0.912521 8.79349 0 8.03279 0C7.27209 0 6.76361 0.912521 5.74586 2.73756Z" fill="#D74304" fill-opacity="0.5"/>
</svg>
