<svg width="17" height="17" viewBox="0 0 17 17" fill="none" xmlns="http://www.w3.org/2000/svg">
<path d="M5.74602 2.73756C6.76377 0.912521 7.27224 0 8.03294 0C8.79365 0 9.30212 0.912521 10.3199 2.73756L10.5833 3.20989C10.8725 3.72881 11.0171 3.98826 11.242 4.15936C11.4669 4.33046 11.7481 4.39392 12.3104 4.52083L12.8213 4.63651C14.7973 5.08393 15.7846 5.30724 16.0199 6.06312C16.2545 6.8182 15.5813 7.60622 14.2342 9.18144L13.8856 9.5887C13.5032 10.0361 13.3113 10.2602 13.2253 10.5366C13.1394 10.8137 13.1683 11.1125 13.2261 11.7093L13.2791 12.2532C13.4824 14.3553 13.5844 15.406 12.9691 15.8727C12.3538 16.3394 11.4284 15.9137 9.57925 15.0622L9.09969 14.8421C8.57435 14.5995 8.31168 14.479 8.03294 14.479C7.75421 14.479 7.49154 14.5995 6.96619 14.8421L6.48744 15.0622C4.6375 15.9137 3.71213 16.3394 3.09762 15.8735C2.48151 15.406 2.58352 14.3553 2.78675 12.2532L2.83977 11.7102C2.8976 11.1125 2.92652 10.8137 2.83977 10.5374C2.75462 10.2602 2.56264 10.0361 2.18028 9.5895L1.83166 9.18144C0.484564 7.60702 -0.188581 6.81901 0.0459755 6.06312C0.280532 5.30724 1.26936 5.08313 3.24542 4.63651L3.75631 4.52083C4.31779 4.39392 4.59814 4.33046 4.82386 4.15936C5.04958 3.98826 5.19337 3.72881 5.48254 3.20989L5.74602 2.73756Z" fill="#D74304" fill-opacity="0.5"/>
</svg>
